<svg width="56" height="56" viewBox="0 0 56 56" fill="none" xmlns="http://www.w3.org/2000/svg">
<path d="M34.6949 5.18916C34.0039 4.4951 32.8811 4.49263 32.187 5.18362C31.493 5.87462 31.4905 6.99743 32.1815 7.69149L33.7995 9.31663L17.5856 25.6024L19.1961 25.7821C22.4437 26.1446 24.9984 28.7176 25.3577 31.9656C25.4944 33.2012 26.2795 34.2634 27.4078 34.7532L31.9969 36.6582L46.5086 22.0821L48.3033 23.8848C48.9943 24.5788 50.1171 24.5813 50.8112 23.8903C51.5052 23.1993 51.5077 22.0765 50.8167 21.3824L34.6949 5.18916Z" fill="#8798A5"/>
<path d="M9.63215 33.591L14.3879 28.8142L18.8028 29.3069C20.3914 29.4842 21.6545 30.7459 21.8326 32.3555C22.1093 34.8569 23.7043 37.0204 26.0149 38.0151L29.2917 39.3753L22.3413 46.3565C18.8318 49.8816 13.1417 49.8816 9.63215 46.3565C6.12262 42.8314 6.12262 37.1161 9.63215 33.591Z" fill="#8798A5"/>
</svg>
