<svg width="32" height="33" viewBox="0 0 32 33" fill="none" xmlns="http://www.w3.org/2000/svg">
<path d="M7.14452 31.8546C5.98231 31.8546 4.88293 31.3992 4.06624 30.5746L1.56121 28.0696C-0.134987 26.3734 -0.134987 23.6014 1.56121 21.9052L21.7899 1.67648C22.6145 0.851944 23.706 0.396484 24.8682 0.396484C26.0304 0.396484 27.1298 0.851944 27.9465 1.67648L30.4515 4.18151C31.2761 5.00605 31.7315 6.09759 31.7315 7.2598C31.7315 8.42201 31.2761 9.52139 30.4515 10.3381L10.2228 30.5589C9.39826 31.3835 8.30673 31.8389 7.14452 31.8389V31.8546Z" fill="white"/>
<path d="M24.8657 0.679047C25.9101 0.679047 26.9546 1.07954 27.7555 1.87267L30.2606 4.3777C31.8547 5.97181 31.8547 8.56322 30.2606 10.1573L10.0319 30.3782C9.23088 31.1792 8.18646 31.5718 7.14205 31.5718C6.09763 31.5718 5.05321 31.1713 4.25223 30.3782L1.7472 27.8732C0.153088 26.2791 0.153088 23.6876 1.7472 22.0935L21.9759 1.86481C22.7769 1.06383 23.8213 0.671194 24.8657 0.671194M24.8657 0.137207C23.6328 0.137207 22.4706 0.616225 21.5911 1.49573L1.36241 21.7244C-0.443721 23.5306 -0.443721 26.4675 1.36241 28.2737L3.86744 30.7787C4.7391 31.6503 5.90131 32.1372 7.14205 32.1372C8.38278 32.1372 9.54499 31.6582 10.4166 30.7787L30.6454 10.5578C31.517 9.68617 32.0039 8.52396 32.0039 7.28322C32.0039 6.04248 31.5249 4.88027 30.6454 4.00862L28.1403 1.50359C27.2687 0.631931 26.1065 0.145058 24.8657 0.145058V0.137207Z" fill="#77B09D"/>
<path d="M31.338 6.31738C31.283 6.3802 31.2281 6.44303 31.1731 6.498L10.9444 26.7267C9.35026 28.3208 6.75885 28.3208 5.16474 26.7267L2.65971 24.2217C2.10216 23.672 1.74879 22.9967 1.57603 22.282C0.154679 23.884 0.201796 26.3419 1.74094 27.8811L4.24597 30.3861C5.84008 31.9802 8.43149 31.9802 10.0256 30.3861L30.2543 10.1652C31.2987 9.12082 31.6521 7.66021 31.3301 6.32524L31.338 6.31738Z" fill="white"/>
<path d="M16.2788 9.84657L9.72656 16.3988L15.7235 22.3958L22.2758 15.8435L16.2788 9.84657Z" fill="#CC9D8A"/>
<path d="M24.8682 31.8546C23.706 31.8546 22.6145 31.3992 21.7899 30.5746L1.56121 10.3459C-0.134987 8.64974 -0.134987 5.88556 1.56121 4.18151L4.06624 1.67648C4.89078 0.851944 5.98231 0.396484 7.14452 0.396484C8.30673 0.396484 9.40612 0.851944 10.2228 1.67648L30.4515 21.9052C31.2761 22.7297 31.7315 23.8213 31.7315 24.9835C31.7315 26.1457 31.2761 27.2451 30.4515 28.0618L27.9465 30.5668C27.1219 31.3913 26.0304 31.8468 24.8682 31.8468V31.8546Z" fill="white"/>
<path d="M7.14205 0.679047C8.18646 0.679047 9.23088 1.07954 10.0319 1.87267L30.2606 22.1014C31.8547 23.6955 31.8547 26.2869 30.2606 27.881L27.7555 30.386C26.9546 31.187 25.9101 31.5797 24.8657 31.5797C23.8213 31.5797 22.7769 31.1792 21.9759 30.386L1.7472 10.1573C0.153088 8.56322 0.153088 5.97181 1.7472 4.3777L4.25223 1.87267C5.05321 1.07168 6.09763 0.679047 7.14205 0.679047ZM7.14205 0.137207C5.90916 0.137207 4.7391 0.616225 3.86744 1.49573L1.36241 4.00077C-0.443721 5.8069 -0.443721 8.74383 1.36241 10.55L21.5911 30.7787C22.4628 31.6503 23.625 32.1372 24.8657 32.1372C26.1065 32.1372 27.2687 31.6582 28.1403 30.7787L30.6454 28.2737C31.517 27.402 32.0039 26.2398 32.0039 24.9991C32.0039 23.7583 31.5249 22.604 30.6454 21.7244L10.4166 1.49573C9.54499 0.624078 8.38278 0.137207 7.14205 0.137207Z" fill="#77B09D"/>
<path d="M25.819 31.4619C25.7562 31.4069 25.6933 31.3598 25.6384 31.2969L5.40966 11.0682C3.81555 9.47412 3.81555 6.88271 5.40966 5.2886L7.91469 2.78357C8.46438 2.23388 9.13972 1.87265 9.85432 1.70774C8.25236 0.286393 5.79444 0.333509 4.2553 1.87265L1.75027 4.37768C0.15616 5.97179 0.15616 8.5632 1.75027 10.1573L21.979 30.386C23.0234 31.4304 24.484 31.7838 25.819 31.4697V31.4619Z" fill="white"/>
<path d="M14.3171 11.2743L11.1486 14.4428C10.3675 15.2239 10.3675 16.4902 11.1486 17.2713L14.8724 20.9951C15.6534 21.7761 16.9198 21.7761 17.7008 20.9951L20.8694 17.8265C21.6504 17.0455 21.6504 15.7792 20.8694 14.9981L17.1455 11.2743C16.3645 10.4933 15.0982 10.4933 14.3171 11.2743Z" fill="#77B09D"/>
<path d="M22.7404 4.8097C22.5598 4.99031 22.2692 4.99031 22.0886 4.8097C21.908 4.62909 21.908 4.33853 22.0886 4.15792C22.2692 3.97731 22.5598 3.97731 22.7404 4.15792C22.921 4.33853 22.921 4.62909 22.7404 4.8097Z" fill="#77B09D"/>
<path d="M23.7872 5.86183C23.6066 6.04244 23.3161 6.04244 23.1355 5.86183C22.9548 5.68121 22.9548 5.39066 23.1355 5.21005C23.3161 5.02943 23.6066 5.02943 23.7872 5.21005C23.9679 5.39066 23.9679 5.68121 23.7872 5.86183Z" fill="#77B09D"/>
<path d="M24.8263 6.90626C24.6457 7.08687 24.3551 7.08687 24.1745 6.90626C23.9939 6.72564 23.9939 6.43509 24.1745 6.25448C24.3551 6.07387 24.6457 6.07387 24.8263 6.25448C25.0069 6.43509 25.0069 6.72564 24.8263 6.90626Z" fill="#77B09D"/>
<path d="M25.881 7.95862C25.7004 8.13924 25.4098 8.13924 25.2292 7.95862C25.0486 7.77801 25.0486 7.48746 25.2292 7.30685C25.4098 7.12623 25.7004 7.12623 25.881 7.30685C26.0616 7.48746 26.0616 7.77801 25.881 7.95862Z" fill="#77B09D"/>
<path d="M26.9279 9.00294C26.7472 9.18355 26.4567 9.18355 26.2761 9.00294C26.0955 8.82233 26.0955 8.53177 26.2761 8.35116C26.4567 8.17054 26.7472 8.17054 26.9279 8.35116C27.1085 8.53177 27.1085 8.82233 26.9279 9.00294Z" fill="#77B09D"/>
<path d="M27.9826 10.0474C27.8019 10.228 27.5114 10.228 27.3308 10.0474C27.1502 9.86676 27.1502 9.57621 27.3308 9.39559C27.5114 9.21498 27.8019 9.21498 27.9826 9.39559C28.1632 9.57621 28.1632 9.86676 27.9826 10.0474Z" fill="#77B09D"/>
<path d="M21.6544 5.89344C21.4738 6.07405 21.1833 6.07405 21.0026 5.89344C20.822 5.71283 20.822 5.42227 21.0026 5.24166C21.1833 5.06105 21.4738 5.06105 21.6544 5.24166C21.835 5.42227 21.835 5.71283 21.6544 5.89344Z" fill="#77B09D"/>
<path d="M22.7013 6.94556C22.5207 7.12618 22.2301 7.12618 22.0495 6.94556C21.8689 6.76495 21.8689 6.4744 22.0495 6.29379C22.2301 6.11317 22.5207 6.11317 22.7013 6.29379C22.8819 6.4744 22.8819 6.76495 22.7013 6.94556Z" fill="#77B09D"/>
<path d="M23.4243 8.13146C23.6801 8.13146 23.8876 7.92403 23.8876 7.66815C23.8876 7.41227 23.6801 7.20483 23.4243 7.20483C23.1684 7.20483 22.9609 7.41227 22.9609 7.66815C22.9609 7.92403 23.1684 8.13146 23.4243 8.13146Z" fill="#77B09D"/>
<path d="M24.7951 9.03455C24.6144 9.21517 24.3239 9.21517 24.1433 9.03455C23.9627 8.85394 23.9627 8.56339 24.1433 8.38277C24.3239 8.20216 24.6144 8.20216 24.7951 8.38277C24.9757 8.56339 24.9757 8.85394 24.7951 9.03455Z" fill="#77B09D"/>
<path d="M25.8419 10.0867C25.6613 10.2673 25.3708 10.2673 25.1901 10.0867C25.0095 9.90606 25.0095 9.61551 25.1901 9.4349C25.3708 9.25429 25.6613 9.25429 25.8419 9.4349C26.0225 9.61551 26.0225 9.90606 25.8419 10.0867Z" fill="#77B09D"/>
<path d="M26.8966 11.1312C26.716 11.3118 26.4254 11.3118 26.2448 11.1312C26.0642 10.9506 26.0642 10.6601 26.2448 10.4795C26.4254 10.2988 26.716 10.2988 26.8966 10.4795C27.0772 10.6601 27.0772 10.9506 26.8966 11.1312Z" fill="#77B09D"/>
<path d="M20.5763 6.97718C20.3957 7.15779 20.1051 7.15779 19.9245 6.97718C19.7439 6.79657 19.7439 6.50602 19.9245 6.3254C20.1051 6.14479 20.3957 6.14479 20.5763 6.3254C20.7569 6.50602 20.7569 6.79657 20.5763 6.97718Z" fill="#77B09D"/>
<path d="M21.6232 8.02931C21.4426 8.20992 21.152 8.20992 20.9714 8.02931C20.7908 7.84869 20.7908 7.55814 20.9714 7.37753C21.152 7.19691 21.4426 7.19691 21.6232 7.37753C21.8038 7.55814 21.8038 7.84869 21.6232 8.02931Z" fill="#77B09D"/>
<path d="M22.6701 9.07374C22.4894 9.25435 22.1989 9.25435 22.0183 9.07374C21.8377 8.89313 21.8377 8.60257 22.0183 8.42196C22.1989 8.24135 22.4894 8.24135 22.6701 8.42196C22.8507 8.60257 22.8507 8.89313 22.6701 9.07374Z" fill="#77B09D"/>
<path d="M23.7169 10.118C23.5363 10.2987 23.2458 10.2987 23.0651 10.118C22.8845 9.93743 22.8845 9.64688 23.0651 9.46627C23.2458 9.28566 23.5363 9.28566 23.7169 9.46627C23.8975 9.64688 23.8975 9.93743 23.7169 10.118Z" fill="#77B09D"/>
<path d="M24.7638 11.1704C24.5832 11.351 24.2926 11.351 24.112 11.1704C23.9314 10.9898 23.9314 10.6993 24.112 10.5186C24.2926 10.338 24.5832 10.338 24.7638 10.5186C24.9444 10.6993 24.9444 10.9898 24.7638 11.1704Z" fill="#77B09D"/>
<path d="M25.8107 12.2149C25.6301 12.3955 25.3395 12.3955 25.1589 12.2149C24.9783 12.0342 24.9783 11.7437 25.1589 11.5631C25.3395 11.3825 25.6301 11.3825 25.8107 11.5631C25.9913 11.7437 25.9913 12.0342 25.8107 12.2149Z" fill="#77B09D"/>
<path d="M6.86536 20.6879C6.68475 20.8685 6.3942 20.8685 6.21359 20.6879C6.03297 20.5073 6.03297 20.2167 6.21359 20.0361C6.3942 19.8555 6.68475 19.8555 6.86536 20.0361C7.04598 20.2167 7.04598 20.5073 6.86536 20.6879Z" fill="#77B09D"/>
<path d="M7.90443 21.7402C7.72381 21.9209 7.43326 21.9209 7.25265 21.7402C7.07203 21.5596 7.07203 21.2691 7.25265 21.0885C7.43326 20.9078 7.72381 20.9078 7.90443 21.0885C8.08504 21.2691 8.08504 21.5596 7.90443 21.7402Z" fill="#77B09D"/>
<path d="M8.9513 22.7847C8.77069 22.9653 8.48014 22.9653 8.29952 22.7847C8.11891 22.6041 8.11891 22.3135 8.29952 22.1329C8.48014 21.9523 8.77069 21.9523 8.9513 22.1329C9.13192 22.3135 9.13192 22.6041 8.9513 22.7847Z" fill="#77B09D"/>
<path d="M10.006 23.8368C9.82538 24.0174 9.53482 24.0174 9.35421 23.8368C9.1736 23.6562 9.1736 23.3656 9.35421 23.185C9.53482 23.0044 9.82538 23.0044 10.006 23.185C10.1866 23.3656 10.1866 23.6562 10.006 23.8368Z" fill="#77B09D"/>
<path d="M11.0529 24.8814C10.8723 25.062 10.5817 25.062 10.4011 24.8814C10.2205 24.7007 10.2205 24.4102 10.4011 24.2296C10.5817 24.049 10.8723 24.049 11.0529 24.2296C11.2335 24.4102 11.2335 24.7007 11.0529 24.8814Z" fill="#77B09D"/>
<path d="M12.0997 25.9258C11.9191 26.1064 11.6286 26.1064 11.448 25.9258C11.2673 25.7452 11.2673 25.4546 11.448 25.274C11.6286 25.0934 11.9191 25.0934 12.0997 25.274C12.2804 25.4546 12.2804 25.7452 12.0997 25.9258Z" fill="#77B09D"/>
<path d="M5.77943 21.7716C5.59881 21.9522 5.30826 21.9522 5.12765 21.7716C4.94703 21.591 4.94703 21.3004 5.12765 21.1198C5.30826 20.9392 5.59881 20.9392 5.77943 21.1198C5.96004 21.3004 5.96004 21.591 5.77943 21.7716Z" fill="#77B09D"/>
<path d="M6.81849 22.8239C6.63788 23.0045 6.34732 23.0045 6.16671 22.8239C5.9861 22.6432 5.9861 22.3527 6.16671 22.1721C6.34732 21.9915 6.63788 21.9915 6.81849 22.1721C6.9991 22.3527 6.9991 22.6432 6.81849 22.8239Z" fill="#77B09D"/>
<path d="M7.86536 23.8684C7.68475 24.049 7.3942 24.049 7.21359 23.8684C7.03297 23.6878 7.03297 23.3973 7.21359 23.2166C7.3942 23.036 7.68475 23.036 7.86536 23.2166C8.04598 23.3973 8.04598 23.6878 7.86536 23.8684Z" fill="#77B09D"/>
<path d="M8.92005 24.9127C8.73944 25.0933 8.44889 25.0933 8.26827 24.9127C8.08766 24.7321 8.08766 24.4416 8.26827 24.2609C8.44889 24.0803 8.73944 24.0803 8.92005 24.2609C9.10067 24.4416 9.10067 24.7321 8.92005 24.9127Z" fill="#77B09D"/>
<path d="M9.95911 25.965C9.7785 26.1456 9.48795 26.1456 9.30734 25.965C9.12672 25.7844 9.12672 25.4938 9.30734 25.3132C9.48795 25.1326 9.7785 25.1326 9.95911 25.3132C10.1397 25.4938 10.1397 25.7844 9.95911 25.965Z" fill="#77B09D"/>
<path d="M11.006 27.0095C10.8254 27.1901 10.5348 27.1901 10.3542 27.0095C10.1736 26.8289 10.1736 26.5384 10.3542 26.3578C10.5348 26.1771 10.8254 26.1771 11.006 26.3578C11.1866 26.5384 11.1866 26.8289 11.006 27.0095Z" fill="#77B09D"/>
<path d="M4.69349 22.8554C4.51288 23.036 4.22232 23.036 4.04171 22.8554C3.8611 22.6747 3.8611 22.3842 4.04171 22.2036C4.22232 22.023 4.51288 22.023 4.69349 22.2036C4.8741 22.3842 4.8741 22.6747 4.69349 22.8554Z" fill="#77B09D"/>
<path d="M5.74036 23.9076C5.55975 24.0882 5.2692 24.0882 5.08859 23.9076C4.90797 23.727 4.90797 23.4364 5.08859 23.2558C5.2692 23.0752 5.55975 23.0752 5.74036 23.2558C5.92098 23.4364 5.92098 23.727 5.74036 23.9076Z" fill="#77B09D"/>
<path d="M6.78724 24.9519C6.60663 25.1325 6.31607 25.1325 6.13546 24.9519C5.95485 24.7713 5.95485 24.4807 6.13546 24.3001C6.31607 24.1195 6.60663 24.1195 6.78724 24.3001C6.96785 24.4807 6.96785 24.7713 6.78724 24.9519Z" fill="#77B09D"/>
<path d="M7.83411 26.0043C7.6535 26.1849 7.36295 26.1849 7.18234 26.0043C7.00172 25.8237 7.00172 25.5331 7.18234 25.3525C7.36295 25.1719 7.6535 25.1719 7.83411 25.3525C8.01473 25.5331 8.01473 25.8237 7.83411 26.0043Z" fill="#77B09D"/>
<path d="M8.88099 27.0487C8.70038 27.2293 8.40982 27.2293 8.22921 27.0487C8.0486 26.8681 8.0486 26.5775 8.22921 26.3969C8.40982 26.2163 8.70038 26.2163 8.88099 26.3969C9.0616 26.5775 9.0616 26.8681 8.88099 27.0487Z" fill="#77B09D"/>
<path d="M9.93568 28.093C9.75506 28.2736 9.46451 28.2736 9.2839 28.093C9.10328 27.9124 9.10328 27.6219 9.2839 27.4412C9.46451 27.2606 9.75506 27.2606 9.93568 27.4412C10.1163 27.6219 10.1163 27.9124 9.93568 28.093Z" fill="#77B09D"/>
<path d="M27.323 22.8554C27.1423 22.6747 27.1423 22.3842 27.323 22.2036C27.5036 22.023 27.7941 22.023 27.9747 22.2036C28.1554 22.3842 28.1554 22.6747 27.9747 22.8554C27.7941 23.036 27.5036 23.036 27.323 22.8554Z" fill="#77B09D"/>
<path d="M26.2683 23.9076C26.0877 23.727 26.0877 23.4364 26.2683 23.2558C26.4489 23.0752 26.7394 23.0752 26.9201 23.2558C27.1007 23.4364 27.1007 23.727 26.9201 23.9076C26.7394 24.0882 26.4489 24.0882 26.2683 23.9076Z" fill="#77B09D"/>
<path d="M25.2292 24.9519C25.0486 24.7713 25.0486 24.4807 25.2292 24.3001C25.4098 24.1195 25.7004 24.1195 25.881 24.3001C26.0616 24.4807 26.0616 24.7713 25.881 24.9519C25.7004 25.1325 25.4098 25.1325 25.2292 24.9519Z" fill="#77B09D"/>
<path d="M24.1823 26.0043C24.0017 25.8237 24.0017 25.5331 24.1823 25.3525C24.3629 25.1719 24.6535 25.1719 24.8341 25.3525C25.0147 25.5331 25.0147 25.8237 24.8341 26.0043C24.6535 26.1849 24.3629 26.1849 24.1823 26.0043Z" fill="#77B09D"/>
<path d="M23.1276 27.0487C22.947 26.8681 22.947 26.5775 23.1276 26.3969C23.3083 26.2163 23.5988 26.2163 23.7794 26.3969C23.96 26.5775 23.96 26.8681 23.7794 27.0487C23.5988 27.2293 23.3083 27.2293 23.1276 27.0487Z" fill="#77B09D"/>
<path d="M22.0808 28.093C21.9002 27.9124 21.9002 27.6219 22.0808 27.4412C22.2614 27.2606 22.5519 27.2606 22.7326 27.4412C22.9132 27.6219 22.9132 27.9124 22.7326 28.093C22.5519 28.2736 22.2614 28.2736 22.0808 28.093Z" fill="#77B09D"/>
<path d="M26.2448 21.7716C26.0642 21.591 26.0642 21.3004 26.2448 21.1198C26.4254 20.9392 26.716 20.9392 26.8966 21.1198C27.0772 21.3004 27.0772 21.591 26.8966 21.7716C26.716 21.9522 26.4254 21.9522 26.2448 21.7716Z" fill="#77B09D"/>
<path d="M25.1901 22.8239C25.0095 22.6432 25.0095 22.3527 25.1901 22.1721C25.3708 21.9915 25.6613 21.9915 25.8419 22.1721C26.0225 22.3527 26.0225 22.6432 25.8419 22.8239C25.6613 23.0045 25.3708 23.0045 25.1901 22.8239Z" fill="#77B09D"/>
<path d="M24.1433 23.8684C23.9627 23.6878 23.9627 23.3973 24.1433 23.2166C24.3239 23.036 24.6144 23.036 24.7951 23.2166C24.9757 23.3973 24.9757 23.6878 24.7951 23.8684C24.6144 24.049 24.3239 24.049 24.1433 23.8684Z" fill="#77B09D"/>
<path d="M23.0964 24.9127C22.9158 24.7321 22.9158 24.4416 23.0964 24.2609C23.277 24.0803 23.5676 24.0803 23.7482 24.2609C23.9288 24.4416 23.9288 24.7321 23.7482 24.9127C23.5676 25.0933 23.277 25.0933 23.0964 24.9127Z" fill="#77B09D"/>
<path d="M22.0495 25.965C21.8689 25.7844 21.8689 25.4938 22.0495 25.3132C22.2301 25.1326 22.5207 25.1326 22.7013 25.3132C22.8819 25.4938 22.8819 25.7844 22.7013 25.965C22.5207 26.1456 22.2301 26.1456 22.0495 25.965Z" fill="#77B09D"/>
<path d="M21.0026 27.0095C20.822 26.8289 20.822 26.5384 21.0026 26.3578C21.1833 26.1771 21.4738 26.1771 21.6544 26.3578C21.835 26.5384 21.835 26.8289 21.6544 27.0095C21.4738 27.1901 21.1833 27.1901 21.0026 27.0095Z" fill="#77B09D"/>
<path d="M25.1511 20.6879C24.9705 20.5073 24.9705 20.2167 25.1511 20.0361C25.3317 19.8555 25.6223 19.8555 25.8029 20.0361C25.9835 20.2167 25.9835 20.5073 25.8029 20.6879C25.6223 20.8685 25.3317 20.8685 25.1511 20.6879Z" fill="#77B09D"/>
<path d="M24.1042 21.7402C23.9236 21.5596 23.9236 21.2691 24.1042 21.0885C24.2848 20.9078 24.5754 20.9078 24.756 21.0885C24.9366 21.2691 24.9366 21.5596 24.756 21.7402C24.5754 21.9209 24.2848 21.9209 24.1042 21.7402Z" fill="#77B09D"/>
<path d="M23.0573 22.7847C22.8767 22.6041 22.8767 22.3135 23.0573 22.1329C23.2379 21.9523 23.5285 21.9523 23.7091 22.1329C23.8897 22.3135 23.8897 22.6041 23.7091 22.7847C23.5285 22.9653 23.2379 22.9653 23.0573 22.7847Z" fill="#77B09D"/>
<path d="M22.0105 23.8368C21.8298 23.6562 21.8298 23.3656 22.0105 23.185C22.1911 23.0044 22.4816 23.0044 22.6622 23.185C22.8429 23.3656 22.8429 23.6562 22.6622 23.8368C22.4816 24.0174 22.1911 24.0174 22.0105 23.8368Z" fill="#77B09D"/>
<path d="M20.9636 24.8814C20.783 24.7007 20.783 24.4102 20.9636 24.2296C21.1442 24.049 21.4347 24.049 21.6154 24.2296C21.796 24.4102 21.796 24.7007 21.6154 24.8814C21.4347 25.062 21.1442 25.062 20.9636 24.8814Z" fill="#77B09D"/>
<path d="M19.9167 25.9258C19.7361 25.7452 19.7361 25.4546 19.9167 25.274C20.0973 25.0934 20.3879 25.0934 20.5685 25.274C20.7491 25.4546 20.7491 25.7452 20.5685 25.9258C20.3879 26.1064 20.0973 26.1064 19.9167 25.9258Z" fill="#77B09D"/>
<path d="M11.4401 6.97718C11.2595 6.79657 11.2595 6.50602 11.4401 6.3254C11.6208 6.14479 11.9113 6.14479 12.0919 6.3254C12.2725 6.50602 12.2725 6.79657 12.0919 6.97718C11.9113 7.15779 11.6208 7.15779 11.4401 6.97718Z" fill="#77B09D"/>
<path d="M10.3933 8.02931C10.2127 7.84869 10.2127 7.55814 10.3933 7.37753C10.5739 7.19691 10.8644 7.19691 11.0451 7.37753C11.2257 7.55814 11.2257 7.84869 11.0451 8.02931C10.8644 8.20992 10.5739 8.20992 10.3933 8.02931Z" fill="#77B09D"/>
<path d="M9.3464 9.07374C9.16578 8.89313 9.16578 8.60257 9.3464 8.42196C9.52701 8.24135 9.81756 8.24135 9.99818 8.42196C10.1788 8.60257 10.1788 8.89313 9.99818 9.07374C9.81756 9.25435 9.52701 9.25435 9.3464 9.07374Z" fill="#77B09D"/>
<path d="M8.30734 10.118C8.12672 9.93743 8.12672 9.64688 8.30734 9.46627C8.48795 9.28566 8.7785 9.28566 8.95912 9.46627C9.13973 9.64688 9.13973 9.93743 8.95912 10.118C8.7785 10.2987 8.48795 10.2987 8.30734 10.118Z" fill="#77B09D"/>
<path d="M7.25265 11.1704C7.07203 10.9898 7.07203 10.6993 7.25265 10.5186C7.43326 10.338 7.72381 10.338 7.90443 10.5186C8.08504 10.6993 8.08504 10.9898 7.90443 11.1704C7.72381 11.351 7.43326 11.351 7.25265 11.1704Z" fill="#77B09D"/>
<path d="M6.20577 12.2149C6.02516 12.0342 6.02516 11.7437 6.20577 11.5631C6.38639 11.3825 6.67694 11.3825 6.85755 11.5631C7.03817 11.7437 7.03817 12.0342 6.85755 12.2149C6.67694 12.3955 6.38639 12.3955 6.20577 12.2149Z" fill="#77B09D"/>
<path d="M10.362 5.89344C10.1814 5.71283 10.1814 5.42227 10.362 5.24166C10.5426 5.06105 10.8332 5.06105 11.0138 5.24166C11.1944 5.42227 11.1944 5.71283 11.0138 5.89344C10.8332 6.07405 10.5426 6.07405 10.362 5.89344Z" fill="#77B09D"/>
<path d="M9.30734 6.94556C9.12672 6.76495 9.12672 6.4744 9.30734 6.29379C9.48795 6.11317 9.7785 6.11317 9.95911 6.29379C10.1397 6.4744 10.1397 6.76495 9.95911 6.94556C9.7785 7.12618 9.48795 7.12618 9.30734 6.94556Z" fill="#77B09D"/>
<path d="M8.26827 7.99012C8.08766 7.80951 8.08766 7.51895 8.26827 7.33834C8.44889 7.15773 8.73944 7.15773 8.92005 7.33834C9.10067 7.51895 9.10067 7.80951 8.92005 7.99012C8.73944 8.17074 8.44889 8.17074 8.26827 7.99012Z" fill="#77B09D"/>
<path d="M7.2214 9.03455C7.04078 8.85394 7.04078 8.56339 7.2214 8.38277C7.40201 8.20216 7.69256 8.20216 7.87318 8.38277C8.05379 8.56339 8.05379 8.85394 7.87318 9.03455C7.69256 9.21517 7.40201 9.21517 7.2214 9.03455Z" fill="#77B09D"/>
<path d="M6.16671 10.0867C5.9861 9.90606 5.9861 9.61551 6.16671 9.4349C6.34732 9.25429 6.63788 9.25429 6.81849 9.4349C6.9991 9.61551 6.9991 9.90606 6.81849 10.0867C6.63788 10.2673 6.34732 10.2673 6.16671 10.0867Z" fill="#77B09D"/>
<path d="M5.12765 11.1312C4.94703 10.9506 4.94703 10.6601 5.12765 10.4795C5.30826 10.2988 5.59881 10.2988 5.77943 10.4795C5.96004 10.6601 5.96004 10.9506 5.77943 11.1312C5.59881 11.3118 5.30826 11.3118 5.12765 11.1312Z" fill="#77B09D"/>
<path d="M9.2839 4.8097C9.10328 4.62909 9.10328 4.33853 9.2839 4.15792C9.46451 3.97731 9.75506 3.97731 9.93568 4.15792C10.1163 4.33853 10.1163 4.62909 9.93568 4.8097C9.75506 4.99031 9.46451 4.99031 9.2839 4.8097Z" fill="#77B09D"/>
<path d="M8.2214 5.86183C8.04078 5.68121 8.04078 5.39066 8.2214 5.21005C8.40201 5.02943 8.69256 5.02943 8.87318 5.21005C9.05379 5.39066 9.05379 5.68121 8.87318 5.86183C8.69256 6.04244 8.40201 6.04244 8.2214 5.86183Z" fill="#77B09D"/>
<path d="M7.18234 6.90626C7.00172 6.72564 7.00172 6.43509 7.18234 6.25448C7.36295 6.07387 7.6535 6.07387 7.83411 6.25448C8.01473 6.43509 8.01473 6.72564 7.83411 6.90626C7.6535 7.08687 7.36295 7.08687 7.18234 6.90626Z" fill="#77B09D"/>
<path d="M6.13546 7.95862C5.95485 7.77801 5.95485 7.48746 6.13546 7.30685C6.31607 7.12623 6.60663 7.12623 6.78724 7.30685C6.96785 7.48746 6.96785 7.77801 6.78724 7.95862C6.60663 8.13924 6.31607 8.13924 6.13546 7.95862Z" fill="#77B09D"/>
<path d="M5.08859 9.00294C4.90797 8.82233 4.90797 8.53177 5.08859 8.35116C5.2692 8.17054 5.55975 8.17054 5.74036 8.35116C5.92098 8.53177 5.92098 8.82233 5.74036 9.00294C5.55975 9.18355 5.2692 9.18355 5.08859 9.00294Z" fill="#77B09D"/>
<path d="M4.04171 10.0474C3.8611 9.86676 3.8611 9.57621 4.04171 9.39559C4.22232 9.21498 4.51288 9.21498 4.69349 9.39559C4.8741 9.57621 4.8741 9.86676 4.69349 10.0474C4.51288 10.228 4.22232 10.228 4.04171 10.0474Z" fill="#77B09D"/>
</svg>
