<svg width="24" height="24" viewBox="0 0 24 24" fill="none" xmlns="http://www.w3.org/2000/svg">
<path fill-rule="evenodd" clip-rule="evenodd" d="M7 1C7.55228 1 8 1.44772 8 2V3H16V2C16 1.44772 16.4477 1 17 1C17.5523 1 18 1.44772 18 2V3H18.6667C20.5076 3 22 4.51104 22 6.375V18.625C22 20.489 20.5076 22 18.6667 22H5.33333C3.49238 22 2 20.489 2 18.625V6.375C2 4.51104 3.49238 3 5.33333 3H6V2C6 1.44772 6.44772 1 7 1ZM5 8.08333C4.44772 8.08333 4 8.53105 4 9.08333V18.9167C4 19.515 4.51167 20 5.14286 20H18.8571C19.4883 20 20 19.515 20 18.9167V9.08333C20 8.53105 19.5523 8.08333 19 8.08333H5ZM7 11V13H9V11H7ZM11 11H13V13H11V11ZM15 11V13H17V11H15ZM17 15V17H15V15H17ZM13 15H11V17H13V15ZM9 15V17H7V15H9Z" fill="#8798A5"/>
</svg>
