<svg width="56" height="56" viewBox="0 0 56 56" fill="none" xmlns="http://www.w3.org/2000/svg">
<path fill-rule="evenodd" clip-rule="evenodd" d="M28 27.417C28.9665 27.417 29.75 28.2005 29.75 29.167V30.917H31.5C32.4665 30.917 33.25 31.7005 33.25 32.667C33.25 33.6335 32.4665 34.417 31.5 34.417H29.75V36.167C29.75 37.1335 28.9665 37.917 28 37.917C27.0335 37.917 26.25 37.1335 26.25 36.167V34.417H24.5C23.5335 34.417 22.75 33.6335 22.75 32.667C22.75 31.7005 23.5335 30.917 24.5 30.917H26.25V29.167C26.25 28.2005 27.0335 27.417 28 27.417Z" fill="#8798A5"/>
<path fill-rule="evenodd" clip-rule="evenodd" d="M27.88 2.91699C25.7835 2.91693 24.0353 2.91687 22.6475 3.10346C21.1827 3.3004 19.8601 3.73363 18.7974 4.7964C17.7346 5.85916 17.3014 7.18169 17.1044 8.64655C16.9178 10.0344 16.9179 11.7825 16.918 13.879L16.918 14.0603C12.2019 14.2146 9.3699 14.7657 7.40164 16.734C4.66797 19.4677 4.66797 23.8674 4.66797 32.667C4.66797 41.4665 4.66797 45.8663 7.40164 48.6C10.1353 51.3337 14.5351 51.3337 23.3346 51.3337H32.668C41.4675 51.3337 45.8673 51.3337 48.601 48.6C51.3346 45.8663 51.3346 41.4665 51.3346 32.667C51.3346 23.8674 51.3346 19.4677 48.601 16.734C46.6327 14.7657 43.8007 14.2146 39.0846 14.0603L39.0846 13.879C39.0847 11.7826 39.0848 10.0344 38.8982 8.64655C38.7012 7.18169 38.268 5.85916 37.2052 4.7964C36.1425 3.73363 34.8199 3.3004 33.3551 3.10346C31.9673 2.91687 30.2191 2.91693 28.1227 2.91699H27.88ZM35.5846 14.0047V14.0003C35.5846 11.751 35.5809 10.24 35.4294 9.11291C35.2846 8.03617 35.0344 7.57534 34.7304 7.27127C34.4263 6.9672 33.9655 6.71701 32.8887 6.57225C31.7616 6.42072 30.2507 6.417 28.0013 6.417C25.7519 6.417 24.241 6.42072 23.1139 6.57225C22.0371 6.71701 21.5763 6.9672 21.2722 7.27127C20.9682 7.57534 20.718 8.03617 20.5732 9.11291C20.4217 10.24 20.418 11.751 20.418 14.0003V14.0047C21.3327 14.0003 22.3035 14.0003 23.3346 14.0003H32.668C33.6991 14.0003 34.6699 14.0003 35.5846 14.0047ZM37.3346 32.667C37.3346 37.8217 33.156 42.0003 28.0013 42.0003C22.8466 42.0003 18.668 37.8217 18.668 32.667C18.668 27.5123 22.8466 23.3337 28.0013 23.3337C33.156 23.3337 37.3346 27.5123 37.3346 32.667Z" fill="#8798A5"/>
</svg>
