<svg width="25" height="25" viewBox="0 0 25 25" fill="none" xmlns="http://www.w3.org/2000/svg">
<path d="M12.0781 6.13721H9.82812C7.94251 6.13721 6.9997 6.13721 6.41391 6.72299C5.82812 7.30878 5.82812 8.25159 5.82812 10.1372L5.82818 16.3872H19.8281L19.8281 10.1372C19.8281 8.25159 19.8281 7.30878 19.2423 6.72299C18.6566 6.13721 17.7137 6.13721 15.8281 6.13721H13.5781V11.1098L14.2587 10.3158C14.5283 10.0013 15.0017 9.96486 15.3162 10.2344C15.6307 10.504 15.6671 10.9775 15.3976 11.292L13.3976 13.6253C13.2551 13.7915 13.0471 13.8872 12.8281 13.8872C12.6092 13.8872 12.4012 13.7915 12.2587 13.6253L10.2587 11.292C9.98913 10.9775 10.0256 10.504 10.34 10.2344C10.6545 9.96486 11.128 10.0013 11.3976 10.3158L12.0781 11.1098V6.13721Z" fill="#4E4D4D"/>
<path d="M5.85873 17.8872H19.7975C19.7463 18.6778 19.6091 19.1846 19.2423 19.5514C18.6566 20.1372 17.7137 20.1372 15.8281 20.1372H9.82812C7.94251 20.1372 6.9997 20.1372 6.41391 19.5514C6.0471 19.1846 5.90998 18.6778 5.85873 17.8872Z" fill="#4E4D4D"/>
<path d="M6.71701 3.13721H18.9392C21.087 3.13721 22.8281 4.93718 22.8281 7.15756C22.8281 8.44692 22.241 9.59452 21.3281 10.3302L21.3281 10.0477C21.3282 9.18211 21.3283 8.38843 21.2415 7.74281C21.1459 7.03185 20.921 6.28039 20.303 5.66235C19.6849 5.0443 18.9335 4.81941 18.2225 4.72382C17.5769 4.63702 16.7832 4.63711 15.9176 4.63721H9.7386C8.87297 4.63711 8.07931 4.63702 7.43369 4.72382C6.72272 4.81941 5.97127 5.0443 5.35323 5.66235C4.73518 6.28039 4.51029 7.03185 4.4147 7.74281C4.3279 8.38843 4.32799 9.18209 4.32809 10.0477L4.3281 10.3302C3.41521 9.59448 2.82812 8.4469 2.82812 7.15756C2.82812 4.93718 4.56924 3.13721 6.71701 3.13721Z" fill="#4E4D4D"/>
</svg>
