<svg width="56" height="56" viewBox="0 0 56 56" fill="none" xmlns="http://www.w3.org/2000/svg">
<path d="M4.66797 27.9997C4.66797 17.0003 4.66797 11.5006 8.08506 8.08348C10.8301 5.33847 14.919 4.79858 22.1234 4.69239V9.47446C22.1234 10.7729 21.012 11.8043 19.8822 12.4443C17.7478 13.6535 16.2458 16.4262 16.2458 18.8787C16.2458 22.1248 18.8773 24.7563 22.1234 24.7563C25.3695 24.7563 28.001 22.1248 28.001 18.8787C28.001 22.1248 30.6326 24.7563 33.8787 24.7563C37.1248 24.7563 39.7563 22.1248 39.7563 18.8787C39.7563 16.4262 38.2542 13.6535 36.1199 12.4443C34.9901 11.8043 33.8787 10.7729 33.8787 9.47446V4.69238C41.0834 4.79855 45.1725 5.3384 47.9175 8.08348C51.3346 11.5006 51.3346 17.0003 51.3346 27.9997C51.3346 38.9992 51.3346 44.4989 47.9175 47.916C45.1838 50.6497 41.117 51.1964 33.9676 51.3057L33.9676 46.6309C33.9676 45.3325 35.079 44.3011 36.2087 43.6611C38.3431 42.4519 39.8452 39.6792 39.8452 37.2267C39.8452 33.9806 37.2137 31.3491 33.9676 31.3491C30.7214 31.3491 28.0899 33.9806 28.0899 37.2267C28.0899 33.9806 25.4584 31.3491 22.2123 31.3491C18.9661 31.3491 16.3346 33.9806 16.3346 37.2267C16.3346 39.6792 17.8367 42.4519 19.9711 43.6611C21.1008 44.3011 22.2123 45.3325 22.2123 46.6309V51.3083C14.9526 51.2053 10.8413 50.6722 8.08506 47.916C4.66797 44.4989 4.66797 38.9992 4.66797 27.9997Z" fill="#8798A5"/>
</svg>
