<svg width="25" height="24" viewBox="0 0 25 24" fill="none" xmlns="http://www.w3.org/2000/svg">
<path d="M12.666 1.5C6.86758 1.5 2.16602 6.20156 2.16602 12C2.16602 17.7984 6.86758 22.5 12.666 22.5C18.4645 22.5 23.166 17.7984 23.166 12C23.166 6.20156 18.4645 1.5 12.666 1.5ZM17.2012 8.57109L12.2652 15.4148C12.1962 15.5111 12.1053 15.5896 11.9999 15.6437C11.8946 15.6978 11.7778 15.7261 11.6594 15.7261C11.5409 15.7261 11.4242 15.6978 11.3188 15.6437C11.2134 15.5896 11.1225 15.5111 11.0535 15.4148L8.13086 11.3648C8.0418 11.2406 8.13086 11.0672 8.2832 11.0672H9.38242C9.62148 11.0672 9.84883 11.182 9.98945 11.3789L11.6582 13.6945L15.3426 8.58516C15.4832 8.39062 15.7082 8.27344 15.9496 8.27344H17.0488C17.2012 8.27344 17.2902 8.44688 17.2012 8.57109Z" fill="black" fill-opacity="0.45"/>
</svg>
