<svg width="56" height="56" viewBox="0 0 56 56" fill="none" xmlns="http://www.w3.org/2000/svg">
<path fill-rule="evenodd" clip-rule="evenodd" d="M20.912 43.0937C14.0466 37.832 4.66797 29.1401 4.66797 20.9219C4.66797 7.19278 17.5017 2.06701 28.0013 12.6726C38.5009 2.06701 51.3346 7.19278 51.3346 20.9218C51.3346 29.1402 41.956 37.8321 35.0906 43.0937C31.9826 45.4757 30.4287 46.6667 28.0013 46.6667C25.574 46.6667 24.02 45.4757 20.912 43.0937ZM38.5013 14.5833C39.4678 14.5833 40.2513 15.3668 40.2513 16.3333V19.25H43.168C44.1345 19.25 44.918 20.0335 44.918 21C44.918 21.9665 44.1345 22.75 43.168 22.75H40.2513V25.6667C40.2513 26.6332 39.4678 27.4167 38.5013 27.4167C37.5348 27.4167 36.7513 26.6332 36.7513 25.6667V22.75L33.8346 22.75C32.8681 22.75 32.0846 21.9665 32.0846 21C32.0846 20.0335 32.8681 19.25 33.8346 19.25H36.7513V16.3333C36.7513 15.3668 37.5348 14.5833 38.5013 14.5833Z" fill="#91B83F"/>
</svg>
