<svg width="24" height="25" viewBox="0 0 24 25" fill="none" xmlns="http://www.w3.org/2000/svg">
<path fill-rule="evenodd" clip-rule="evenodd" d="M8.96173 18.6059C6.01943 16.3509 2 12.6258 2 9.10374C2 3.21983 7.50016 1.02307 12 5.56832C16.4998 1.02307 22 3.21983 22 9.1037C22 12.6259 17.9806 16.3509 15.0383 18.6059C13.7063 19.6268 13.0403 20.1372 12 20.1372C10.9597 20.1372 10.2937 19.6268 8.96173 18.6059ZM16.5 6.38721C16.9142 6.38721 17.25 6.72299 17.25 7.13721V8.38722H18.5C18.9142 8.38722 19.25 8.72301 19.25 9.13722C19.25 9.55144 18.9142 9.88722 18.5 9.88722H17.25V11.1372C17.25 11.5514 16.9142 11.8872 16.5 11.8872C16.0858 11.8872 15.75 11.5514 15.75 11.1372V9.88722L14.5 9.88722C14.0858 9.88722 13.75 9.55144 13.75 9.13722C13.75 8.72301 14.0858 8.38722 14.5 8.38722H15.75V7.13721C15.75 6.72299 16.0858 6.38721 16.5 6.38721Z" fill="#4E4D4D"/>
</svg>
