<svg width="25" height="25" viewBox="0 0 25 25" fill="none" xmlns="http://www.w3.org/2000/svg">
<path d="M13.6641 11.3872H10.9141V8.33721C10.9141 8.24024 10.9141 8.18252 10.9153 8.13901C10.9161 8.11139 10.9171 8.09939 10.9174 8.09651C10.9348 7.99082 11.0177 7.90797 11.1234 7.89054C11.1263 7.89026 11.1383 7.88922 11.1659 7.88846C11.2094 7.88727 11.2671 7.88721 11.3641 7.88721H13.6641C14.6306 7.88721 15.4141 8.67071 15.4141 9.63721C15.4141 10.6037 14.6306 11.3872 13.6641 11.3872Z" fill="#4E4D4D"/>
<path fill-rule="evenodd" clip-rule="evenodd" d="M22.1641 12.1372C22.1641 17.6601 17.6869 22.1372 12.1641 22.1372C6.64121 22.1372 2.16406 17.6601 2.16406 12.1372C2.16406 6.61436 6.64121 2.13721 12.1641 2.13721C17.6869 2.13721 22.1641 6.61436 22.1641 12.1372ZM8.41406 14.1372C8.41406 13.723 8.74985 13.3872 9.16406 13.3872H9.41406V12.8872H9.16406C8.74985 12.8872 8.41406 12.5514 8.41406 12.1372C8.41406 11.723 8.74985 11.3872 9.16406 11.3872H9.41406L9.41403 8.29872C9.41386 8.15319 9.41368 8.00192 9.43561 7.86345C9.55421 7.11463 10.1415 6.52735 10.8903 6.40875C11.0288 6.38682 11.18 6.387 11.3256 6.38718L13.6641 6.38721C15.459 6.38721 16.9141 7.84228 16.9141 9.63721C16.9141 11.4321 15.459 12.8872 13.6641 12.8872H10.9141V13.3872H12.1641C12.5783 13.3872 12.9141 13.723 12.9141 14.1372C12.9141 14.5514 12.5783 14.8872 12.1641 14.8872H10.9141V17.1372C10.9141 17.5514 10.5783 17.8872 10.1641 17.8872C9.74985 17.8872 9.41406 17.5514 9.41406 17.1372V14.8872H9.16406C8.74985 14.8872 8.41406 14.5514 8.41406 14.1372Z" fill="#4E4D4D"/>
</svg>
