<svg width="11" height="11" viewBox="0 0 11 11" fill="none" xmlns="http://www.w3.org/2000/svg">
<path d="M4.49253 0.558187C4.88791 -0.186245 5.9546 -0.186246 6.34998 0.558186L7.27763 2.30479C7.42963 2.59097 7.70508 2.7911 8.02423 2.84722L9.972 3.18974C10.8022 3.33573 11.1318 4.35021 10.546 4.95628L9.17153 6.37826C8.94632 6.61125 8.84111 6.93506 8.88636 7.25593L9.1625 9.21422C9.28019 10.0489 8.41723 10.6759 7.65979 10.306L5.88268 9.43824C5.59149 9.29605 5.25102 9.29605 4.95983 9.43824L3.18272 10.306C2.42528 10.6759 1.56232 10.0489 1.68001 9.21422L1.95615 7.25593C2.0014 6.93506 1.89619 6.61125 1.67098 6.37826L0.296524 4.95628C-0.289294 4.35021 0.0403284 3.33573 0.870506 3.18974L2.81828 2.84722C3.13743 2.7911 3.41288 2.59097 3.56488 2.30479L4.49253 0.558187Z" fill="#FFB401"/>
</svg>
