<svg width="25" height="24" viewBox="0 0 25 24" fill="none" xmlns="http://www.w3.org/2000/svg">
<path d="M10.7017 5.31617L11.3507 6.4791C11.9364 7.52858 11.7012 8.90533 10.7788 9.8278C10.7788 9.8278 9.65984 10.9467 11.6886 12.9755C13.7173 15.0042 14.8363 13.8853 14.8363 13.8853C15.7587 12.9628 17.1355 12.7277 18.185 13.3134L19.3479 13.9624C20.9326 14.8468 21.1198 17.0692 19.7268 18.4622C18.8898 19.2992 17.8645 19.9505 16.731 19.9934C14.8228 20.0658 11.5823 19.5829 8.33177 16.3323C5.08119 13.0817 4.59828 9.84122 4.67061 7.93309C4.71358 6.7996 5.36487 5.77423 6.20187 4.93723C7.59482 3.54428 9.81724 3.73144 10.7017 5.31617Z" fill="#91B83F"/>
<path d="M13.9236 1.88008C13.9897 1.47119 14.3763 1.19381 14.7852 1.26001C14.8105 1.26485 14.8919 1.28007 14.9346 1.28958C15.0199 1.30858 15.1389 1.33784 15.2874 1.38106C15.5841 1.46751 15.9987 1.60991 16.4963 1.83805C17.4926 2.2948 18.8184 3.09381 20.1942 4.46961C21.57 5.84541 22.369 7.17122 22.8258 8.1675C23.0539 8.66511 23.1963 9.07972 23.2828 9.3765C23.326 9.5249 23.3553 9.64393 23.3743 9.72926C23.3838 9.77193 23.3907 9.80619 23.3956 9.8315L23.4013 9.86269C23.4675 10.2716 23.1927 10.6741 22.7838 10.7403C22.3761 10.8063 21.992 10.5303 21.9241 10.1233C21.922 10.1124 21.9163 10.083 21.9101 10.0553C21.8978 9.99994 21.8765 9.91212 21.8426 9.79597C21.775 9.56363 21.6574 9.2183 21.4623 8.79262C21.0724 7.94232 20.3714 6.76813 19.1336 5.53027C17.8957 4.2924 16.7215 3.59141 15.8712 3.20158C15.4455 3.00642 15.1002 2.88889 14.8679 2.82122C14.7517 2.78739 14.6057 2.75387 14.5503 2.74154C14.1434 2.67372 13.8575 2.2878 13.9236 1.88008Z" fill="#91B83F"/>
<path fill-rule="evenodd" clip-rule="evenodd" d="M14.1498 5.32954C14.2636 4.93126 14.6787 4.70065 15.077 4.81444L14.8709 5.53558C15.077 4.81444 15.077 4.81444 15.077 4.81444L15.0784 4.81485L15.08 4.81529L15.0833 4.81627L15.091 4.81858L15.1108 4.82475C15.1259 4.82957 15.1447 4.83585 15.1672 4.84381C15.2121 4.85975 15.2715 4.88242 15.3443 4.91362C15.4899 4.97605 15.689 5.07248 15.9335 5.21719C16.423 5.50687 17.0912 5.98805 17.8761 6.77302C18.6611 7.55799 19.1423 8.22618 19.432 8.71564C19.5767 8.96015 19.6731 9.15922 19.7355 9.3049C19.7667 9.37771 19.7894 9.43707 19.8053 9.48198C19.8133 9.50443 19.8196 9.52326 19.8244 9.53834L19.8306 9.55812L19.8329 9.56587L19.8339 9.56921L19.8343 9.57074C19.8343 9.57074 19.8347 9.57218 19.1136 9.77822L19.8347 9.57218C19.9485 9.97046 19.7179 10.3856 19.3196 10.4994C18.9247 10.6122 18.5133 10.3864 18.3954 9.99437L18.3917 9.98359C18.3864 9.96856 18.3753 9.93898 18.3568 9.89578C18.3198 9.80944 18.2527 9.66821 18.1411 9.47962C17.9181 9.10288 17.5154 8.53363 16.8155 7.83368C16.1155 7.13373 15.5463 6.73102 15.1695 6.50805C14.9809 6.39644 14.8397 6.32934 14.7534 6.29234C14.7102 6.27382 14.6806 6.26279 14.6656 6.25746L14.6548 6.25376C14.2627 6.13588 14.037 5.72443 14.1498 5.32954Z" fill="#91B83F"/>
</svg>
