<svg width="40" height="33" viewBox="0 0 40 33" fill="none" xmlns="http://www.w3.org/2000/svg">
<path d="M1.02987 15.524C1.11989 15.4796 1.20996 15.4374 1.29773 15.3975C2.8236 14.7004 4.36973 14.0477 5.91361 13.395C5.99688 13.395 6.13638 13.2996 6.21515 13.2685C6.33443 13.2174 6.45373 13.1686 6.57301 13.1175C6.80256 13.0199 7.03213 12.9244 7.25944 12.8267C7.71855 12.6336 8.17538 12.4405 8.63449 12.2473C9.55047 11.861 10.4664 11.4748 11.3824 11.0863C13.2144 10.3137 15.0486 9.53888 16.8805 8.76632C18.7125 7.99377 20.5467 7.219 22.3786 6.44644C24.2106 5.67388 26.0448 4.89912 27.8767 4.12656C29.7087 3.354 31.5429 2.57923 33.3748 1.80667C33.7822 1.63351 34.2233 1.37599 34.6599 1.30051C35.0267 1.23613 35.3845 1.11183 35.7536 1.04301C36.4536 0.912028 37.2255 0.85874 37.8962 1.14512C38.128 1.24502 38.3418 1.38485 38.5196 1.56023C39.3703 2.39051 39.251 3.75362 39.0709 4.92133C37.8174 13.0598 36.5638 21.2006 35.308 29.3391C35.137 30.4557 34.9029 31.6811 34.0095 32.3871C33.2533 32.9843 32.1775 33.0508 31.2435 32.7978C30.3095 32.5425 29.4859 32.0075 28.6779 31.4813C25.3268 29.2924 21.9735 27.1035 18.6225 24.9146C17.8258 24.3951 16.9391 23.7158 16.9481 22.7723C16.9526 22.204 17.2969 21.6978 17.648 21.2471C20.5602 17.4998 24.762 14.9246 27.888 11.3504C28.3291 10.8465 28.6757 9.93631 28.0703 9.64549C27.7102 9.47233 27.2961 9.7076 26.9675 9.93182C22.8355 12.7623 18.7057 15.595 14.5737 18.4255C13.2256 19.349 11.8123 20.2992 10.1874 20.5256C8.73355 20.7299 7.2707 20.3303 5.86411 19.9218C4.68482 19.5799 3.50774 19.2292 2.3352 18.8673C1.7118 18.6764 1.06814 18.4699 0.586519 18.037C0.104901 17.6041 -0.171879 16.876 0.118442 16.2988C0.300737 15.9369 0.65408 15.7083 1.02542 15.5218L1.02987 15.524Z" fill="white"/>
</svg>
