<svg width="42" height="30" viewBox="0 0 42 30" fill="none" xmlns="http://www.w3.org/2000/svg">
<path d="M41.4486 8.4578C41.1931 6.00893 40.6432 3.3018 38.6196 1.87914C37.0522 0.775901 34.992 0.735116 33.0687 0.737381C29.0031 0.739646 24.9352 0.744186 20.8696 0.746451C16.9591 0.750982 13.0487 0.753259 9.1382 0.757789C7.50466 0.760055 5.91674 0.633205 4.39955 1.33547C3.09683 1.93806 2.077 3.08431 1.46328 4.35971C0.61229 6.1335 0.434343 8.14292 0.331676 10.1047C0.142313 13.6772 0.162846 17.2588 0.388713 20.829C0.555261 23.4342 0.977329 26.3135 3.00557 27.974C4.80338 29.4442 7.34038 29.5167 9.67206 29.519C17.0732 29.5258 24.4766 29.5326 31.8801 29.5371C32.8292 29.5394 33.8193 29.5213 34.7867 29.4171C36.6894 29.2132 38.5032 28.6718 39.7261 27.2718C40.9603 25.8604 41.2775 23.8963 41.4646 22.0364C41.9209 17.5238 41.9163 12.9682 41.4486 8.4578ZM16.5895 21.4633V8.81121L27.6228 15.1361L16.5895 21.4633Z" fill="white"/>
</svg>
