<svg width="24" height="24" viewBox="0 0 24 24" fill="none" xmlns="http://www.w3.org/2000/svg">
<path fill-rule="evenodd" clip-rule="evenodd" d="M8.70708 7.29341C8.51848 7.11125 8.26588 7.01045 8.00368 7.01273C7.74148 7.01501 7.49067 7.12018 7.30526 7.30559C7.11985 7.491 7.01469 7.74181 7.01241 8.00401C7.01013 8.2662 7.11092 8.5188 7.29308 8.70741L10.5861 12.0004L7.29308 15.2934C7.19757 15.3857 7.12139 15.496 7.06898 15.618C7.01657 15.74 6.98898 15.8712 6.98783 16.004C6.98668 16.1368 7.01198 16.2685 7.06226 16.3914C7.11254 16.5143 7.18679 16.6259 7.28069 16.7198C7.37458 16.8137 7.48623 16.8879 7.60913 16.9382C7.73202 16.9885 7.8637 17.0138 7.99648 17.0127C8.12926 17.0115 8.26048 16.9839 8.38249 16.9315C8.50449 16.8791 8.61483 16.8029 8.70708 16.7074L12.0001 13.4144L15.2931 16.7074C15.4817 16.8896 15.7343 16.9904 15.9965 16.9881C16.2587 16.9858 16.5095 16.8806 16.6949 16.6952C16.8803 16.5098 16.9855 16.259 16.9878 15.9968C16.99 15.7346 16.8892 15.482 16.7071 15.2934L13.4141 12.0004L16.7071 8.70741C16.8892 8.5188 16.99 8.2662 16.9878 8.00401C16.9855 7.74181 16.8803 7.491 16.6949 7.30559C16.5095 7.12018 16.2587 7.01501 15.9965 7.01273C15.7343 7.01045 15.4817 7.11125 15.2931 7.29341L12.0001 10.5864L8.70708 7.29341Z" fill="#8798A5"/>
</svg>
