<svg width="65" height="64" viewBox="0 0 65 64" fill="none" xmlns="http://www.w3.org/2000/svg">
<rect x="0.328125" width="64" height="64" rx="32" fill="#8798A5"/>
<path fill-rule="evenodd" clip-rule="evenodd" d="M32.1641 31.625C32.7854 31.625 33.2891 32.1287 33.2891 32.75V33.875H34.4141C35.0354 33.875 35.5391 34.3787 35.5391 35C35.5391 35.6213 35.0354 36.125 34.4141 36.125H33.2891V37.25C33.2891 37.8713 32.7854 38.375 32.1641 38.375C31.5427 38.375 31.0391 37.8713 31.0391 37.25V36.125H29.9141C29.2927 36.125 28.7891 35.6213 28.7891 35C28.7891 34.3787 29.2927 33.875 29.9141 33.875H31.0391V32.75C31.0391 32.1287 31.5427 31.625 32.1641 31.625Z" fill="white"/>
<path fill-rule="evenodd" clip-rule="evenodd" d="M32.0861 15.875C30.7384 15.875 29.6145 15.8749 28.7223 15.9949C27.7807 16.1215 26.9305 16.4 26.2472 17.0832C25.564 17.7664 25.2855 18.6166 25.1589 19.5583C25.039 20.4505 25.039 21.5743 25.0391 22.922L25.0391 23.0386C22.0073 23.1378 20.1867 23.4921 18.9214 24.7574C17.1641 26.5147 17.1641 29.3431 17.1641 35C17.1641 40.6569 17.1641 43.4853 18.9214 45.2426C20.6788 47 23.5072 47 29.164 47H35.1641C40.8209 47 43.6493 47 45.4067 45.2426C47.1641 43.4853 47.1641 40.6569 47.1641 35C47.1641 29.3431 47.1641 26.5147 45.4067 24.7574C44.1414 23.4921 42.3208 23.1378 39.2891 23.0386L39.2891 22.922C39.2891 21.5743 39.2891 20.4504 39.1692 19.5583C39.0426 18.6166 38.7641 17.7664 38.0809 17.0832C37.3977 16.4 36.5475 16.1215 35.6058 15.9949C34.7136 15.8749 33.5898 15.875 32.2421 15.875H32.0861ZM37.0391 23.0028V23C37.0391 21.554 37.0367 20.5826 36.9393 19.8581C36.8462 19.1659 36.6854 18.8697 36.4899 18.6742C36.2944 18.4787 35.9982 18.3179 35.306 18.2248C34.5814 18.1274 33.6101 18.125 32.1641 18.125C30.718 18.125 29.7467 18.1274 29.0222 18.2248C28.33 18.3179 28.0337 18.4787 27.8382 18.6742C27.6428 18.8697 27.4819 19.1659 27.3889 19.8581C27.2915 20.5826 27.2891 21.554 27.2891 23V23.0028C27.8771 23 28.5012 23 29.1641 23H35.1641C35.827 23 36.451 23 37.0391 23.0028ZM38.1641 35C38.1641 38.3137 35.4778 41 32.1641 41C28.8504 41 26.1641 38.3137 26.1641 35C26.1641 31.6863 28.8504 29 32.1641 29C35.4778 29 38.1641 31.6863 38.1641 35Z" fill="white"/>
</svg>
