<svg width="65" height="64" viewBox="0 0 65 64" fill="none" xmlns="http://www.w3.org/2000/svg">
<rect x="0.664062" width="64" height="64" rx="32" fill="#8798A5"/>
<path d="M36.3342 37.3216L35.6511 38.0408C35.6511 38.0408 34.0272 39.7504 29.5947 35.0838C25.1622 30.4173 26.7861 28.7076 26.7861 28.7076L27.2163 28.2547C28.2761 27.1389 28.376 25.3474 27.4514 24.0397L25.5599 21.3644C24.4154 19.7457 22.2039 19.5319 20.8922 20.913L18.5378 23.3917C17.8873 24.0765 17.4515 24.9642 17.5043 25.9489C17.6396 28.4682 18.7161 33.8886 24.723 40.2128C31.0932 46.9194 37.0703 47.1859 39.5144 46.9446C40.2875 46.8683 40.9599 46.4514 41.5017 45.881L43.6325 43.6376C45.0708 42.1234 44.6653 39.5272 42.825 38.468L39.9592 36.8185C38.7509 36.123 37.2787 36.3273 36.3342 37.3216Z" fill="white"/>
<path d="M40 32C44.1421 32 47.5 28.6421 47.5 24.5C47.5 20.3579 44.1421 17 40 17C35.8579 17 32.5 20.3579 32.5 24.5C32.5 25.6998 32.7817 26.8337 33.2826 27.8394C33.4157 28.1066 33.46 28.4121 33.3828 28.7005L32.9361 30.37C32.7422 31.0947 33.4053 31.7578 34.13 31.5639L35.7995 31.1172C36.0879 31.04 36.3934 31.0843 36.6606 31.2174C37.6663 31.7183 38.8002 32 40 32Z" fill="white"/>
</svg>
