<svg width="64" height="64" viewBox="0 0 64 64" fill="none" xmlns="http://www.w3.org/2000/svg">
<rect width="64" height="64" rx="32" fill="#8798A5"/>
<path d="M43.3713 16.4211C43.6909 15.8883 44.382 15.7156 44.9147 16.0352L44.3359 16.9999C44.9147 16.0352 44.9142 16.0349 44.9147 16.0352L44.9168 16.0365L44.9192 16.0379L44.9247 16.0413L44.9391 16.0502C44.9502 16.057 44.964 16.0658 44.9805 16.0765C45.0135 16.0978 45.0572 16.1269 45.11 16.1638C45.2155 16.2377 45.3579 16.3434 45.5249 16.4826C45.8581 16.7602 46.2937 17.1749 46.7276 17.739C47.6019 18.8756 48.4609 20.6109 48.4609 22.9999C48.4609 25.3889 47.6019 27.1242 46.7276 28.2608C46.2937 28.8249 45.8581 29.2397 45.5249 29.5173C45.3579 29.6564 45.2155 29.7622 45.11 29.836C45.0572 29.873 45.0135 29.902 44.9805 29.9234C44.9723 29.9287 44.9647 29.9335 44.9578 29.9379C44.9509 29.9423 44.9447 29.9462 44.9391 29.9497L44.9247 29.9585L44.9192 29.9619L44.9168 29.9634C44.9163 29.9637 44.9147 29.9646 44.3359 28.9999L44.9147 29.9646C44.382 30.2843 43.6909 30.1115 43.3713 29.5787C43.0529 29.0482 43.2229 28.3607 43.7504 28.0393L43.7587 28.034C43.7697 28.0269 43.7905 28.0132 43.8197 27.9927C43.8783 27.9517 43.9702 27.884 44.0845 27.7888C44.3138 27.5977 44.6281 27.2999 44.9442 26.889C45.5699 26.0756 46.2109 24.8109 46.2109 22.9999C46.2109 21.1889 45.5699 19.9242 44.9442 19.1109C44.6281 18.6999 44.3138 18.4022 44.0845 18.211C43.9702 18.1158 43.8783 18.0481 43.8197 18.0071C43.7905 17.9866 43.7697 17.9729 43.7587 17.9659L43.7504 17.9606C43.2229 17.6391 43.0529 16.9517 43.3713 16.4211Z" fill="white"/>
<path d="M30.8359 28.9999C34.1496 28.9999 36.8359 26.3136 36.8359 22.9999C36.8359 19.6862 34.1496 16.9999 30.8359 16.9999C27.5222 16.9999 24.8359 19.6862 24.8359 22.9999C24.8359 26.3136 27.5222 28.9999 30.8359 28.9999Z" fill="white"/>
<path d="M18.8359 40.2499C18.8359 43.9778 18.8359 46.9999 30.8359 46.9999C42.8359 46.9999 42.8359 43.9778 42.8359 40.2499C42.8359 36.522 37.4634 33.4999 30.8359 33.4999C24.2085 33.4999 18.8359 36.522 18.8359 40.2499Z" fill="white"/>
<path d="M41.9147 19.0352C41.382 18.7156 40.6909 18.8883 40.3713 19.4211L40.7436 20.9564L40.7552 20.9643C40.7728 20.9766 40.8061 21.001 40.8501 21.0376C40.9388 21.1115 41.0656 21.2312 41.1942 21.3984C41.4449 21.7242 41.7109 22.2389 41.7109 22.9999C41.7109 23.7609 41.4449 24.2756 41.1942 24.6015C41.0656 24.7687 40.9388 24.8883 40.8501 24.9622C40.8061 24.9989 40.7728 25.0232 40.7552 25.0355L40.7436 25.0435C40.2214 25.3667 40.0543 26.0505 40.3713 26.5787C40.6909 27.1115 41.382 27.2843 41.9147 26.9646L41.3359 25.9999C41.9147 26.9646 41.9142 26.9649 41.9147 26.9646L41.9168 26.9634L41.9189 26.9621L41.9237 26.9592L41.9348 26.9523L41.9637 26.934C41.9857 26.9197 42.0133 26.9014 42.0455 26.8788C42.11 26.8337 42.1939 26.7713 42.2905 26.6907C42.4831 26.5303 42.7312 26.2937 42.9776 25.9733C43.4769 25.3242 43.9609 24.3389 43.9609 22.9999C43.9609 21.6609 43.4769 20.6756 42.9776 20.0265C42.7312 19.7062 42.4831 19.4696 42.2905 19.3091C42.1939 19.2286 42.11 19.1662 42.0455 19.1211C42.0133 19.0985 41.9857 19.0801 41.9637 19.0659L41.9348 19.0475L41.9237 19.0406L41.9189 19.0378L41.9168 19.0365C41.9163 19.0362 41.9147 19.0352 41.3359 19.9999L41.9147 19.0352Z" fill="white"/>
</svg>
