<svg width="32" height="32" viewBox="0 0 32 32" fill="none" xmlns="http://www.w3.org/2000/svg">
<g clip-path="url(#clip0_2648_8121)">
<path d="M29.7018 2.75896L1.01968 13.7203C-0.539341 14.1846 -0.499366 15.739 0.659909 16.1225L7.83542 18.3835L10.5937 26.9022C10.9335 27.8308 11.1933 28.1942 11.773 28.1942C12.3726 28.1942 12.5924 27.9721 13.232 27.4271C13.9516 26.7407 15.0709 25.6507 16.8298 23.9146L24.3051 29.4861C25.6843 30.2532 26.6637 29.8495 27.0234 28.1942L31.7005 4.77763C32.2002 2.75896 31.0209 2.15336 29.7018 2.75896ZM8.97471 17.8586L25.3045 7.50283C26.104 6.95779 26.3638 7.56339 26.0041 7.98731L12.4525 20.3012L11.753 26.4581L8.97471 17.8586Z" fill="#8798A5"/>
</g>
<defs>
<clipPath id="clip0_2648_8121">
<rect width="32" height="32" fill="white"/>
</clipPath>
</defs>
</svg>
