<svg width="24" height="24" viewBox="0 0 24 24" fill="none" xmlns="http://www.w3.org/2000/svg">
<path fill-rule="evenodd" clip-rule="evenodd" d="M3 7C3 6.44772 3.44772 6 4 6H8C8.55228 6 9 6.44772 9 7V12C9 12.5523 8.55228 13 8 13H4C3.44772 13 3 12.5523 3 12V7ZM4 4C2.34315 4 1 5.34315 1 7V12C1 13.6569 2.34315 15 4 15H8C8.20148 15 8.39832 14.9801 8.58868 14.9423C8.236 16.181 7.70062 17.2306 7.16022 18.0665C6.69716 18.7828 6.23485 19.3349 5.89185 19.7047C5.72066 19.8893 5.58011 20.0274 5.48537 20.1169C5.43803 20.1616 5.40222 20.194 5.37986 20.214L5.35667 20.2344L5.35458 20.2362L5.3541 20.2366L5.35324 20.2373C4.93288 20.5938 4.88012 21.2234 5.23573 21.6449C5.59188 22.067 6.22279 22.1204 6.64489 21.7643L6.00002 21C6.64489 21.7643 6.64522 21.764 6.64555 21.7637L6.6463 21.7631L6.64808 21.7616L6.65273 21.7576L6.66633 21.7459C6.67726 21.7364 6.69191 21.7236 6.71003 21.7075C6.74626 21.6752 6.79639 21.6297 6.85843 21.5711C6.98243 21.454 7.15439 21.2845 7.35819 21.0648C7.76519 20.626 8.30289 19.9828 8.83982 19.1523C9.91254 17.4929 11 15.0564 11 12L11 11.9933V7C11 5.34315 9.65685 4 8 4H4ZM15 7C15 6.44772 15.4477 6 16 6H20C20.5523 6 21 6.44772 21 7V12C21 12.5523 20.5523 13 20 13H16C15.4477 13 15 12.5523 15 12V7ZM16 4C14.3431 4 13 5.34315 13 7V12C13 13.6569 14.3431 15 16 15H20C20.2015 15 20.3983 14.9801 20.5887 14.9423C20.236 16.181 19.7006 17.2306 19.1602 18.0665C18.6972 18.7828 18.2348 19.3349 17.8918 19.7047C17.7207 19.8893 17.5801 20.0274 17.4854 20.1169C17.438 20.1616 17.4022 20.194 17.3799 20.214L17.3567 20.2344L17.3546 20.2362L17.3541 20.2366L17.3532 20.2373C16.9329 20.5938 16.8801 21.2234 17.2357 21.6449C17.5919 22.067 18.2228 22.1204 18.6449 21.7643L18 21C18.6449 21.7643 18.6452 21.764 18.6456 21.7637L18.6463 21.7631L18.6481 21.7616L18.6527 21.7576L18.6663 21.7459C18.6773 21.7364 18.6919 21.7236 18.71 21.7075C18.7463 21.6752 18.7964 21.6297 18.8584 21.5711C18.9824 21.454 19.1544 21.2845 19.3582 21.0648C19.7652 20.626 20.3029 19.9828 20.8398 19.1523C21.9125 17.4929 23 15.0564 23 12C23 11.9977 23 11.9954 23 11.9932V7C23 5.34315 21.6569 4 20 4H16Z" fill="#8798A5"/>
</svg>
