<svg width="32" height="32" viewBox="0 0 32 32" fill="none" xmlns="http://www.w3.org/2000/svg">
<g clip-path="url(#clip0_2648_8118)">
<path fill-rule="evenodd" clip-rule="evenodd" d="M16.292 0C7.61408 0 0.584094 6.97542 0.584094 15.586C0.584094 18.5252 1.39765 21.2781 2.83703 23.6378L0 32L8.69883 29.2264C10.9518 30.4683 13.5385 31.1721 16.292 31.1721C24.97 31.1721 32 24.1966 32 15.586C32 6.97542 24.97 0 16.292 0ZM23.2793 18.927C23.4469 19.0156 23.5798 19.0858 23.6558 19.1255C23.7584 19.1844 23.8527 19.2351 23.9375 19.2806C24.18 19.4109 24.3449 19.4995 24.4068 19.6222C24.4902 19.7878 24.4694 20.5951 24.0939 21.5058C23.7184 22.4373 22.0495 23.2652 21.3194 23.3066C21.1966 23.3136 21.0939 23.334 20.9888 23.3549C20.469 23.4582 19.8914 23.5731 16.5424 22.1268C12.8184 20.4994 10.4687 16.747 9.98844 15.9801C9.94948 15.9179 9.92282 15.8753 9.90874 15.8551L9.90147 15.8447C9.68815 15.5393 8.3452 13.6168 8.42764 11.674C8.48488 9.87539 9.39732 8.95997 9.83994 8.51591C9.88123 8.47449 9.91842 8.43717 9.95046 8.40362C10.3259 8.03105 10.764 7.94825 11.0352 7.94825C11.1324 7.95567 11.2295 7.96574 11.3248 7.97562C11.4954 7.9933 11.6598 8.01035 11.807 8.01035C11.838 8.01314 11.8709 8.0133 11.9054 8.01346C12.1262 8.01449 12.4125 8.01583 12.6832 8.7141C12.8657 9.18494 13.1901 10.0572 13.4454 10.7434C13.6278 11.2337 13.7749 11.6291 13.8096 11.7154C13.8931 11.9224 13.9557 12.1501 13.8096 12.4191C13.6845 12.6675 13.601 12.8331 13.3924 13.0608C13.3229 13.1367 13.251 13.2195 13.1792 13.3023C13.0355 13.4679 12.8918 13.6335 12.7666 13.7439C12.558 13.9301 12.3286 14.1371 12.558 14.5511C12.7875 14.9651 13.5385 16.2898 14.6858 17.3868C15.9507 18.5888 17.0634 19.1115 17.6082 19.3674C17.7013 19.4112 17.7779 19.4471 17.8357 19.4774C18.2321 19.705 18.4615 19.6636 18.7119 19.4153C18.9622 19.1669 19.7549 18.2975 20.0469 17.9043C20.339 17.511 20.6102 17.5938 20.9648 17.7387C21.2514 17.8558 22.5734 18.5541 23.2793 18.927Z" fill="#8798A5"/>
</g>
<defs>
<clipPath id="clip0_2648_8118">
<rect width="32" height="32" fill="white"/>
</clipPath>
</defs>
</svg>
