<svg width="32" height="32" viewBox="0 0 32 32" fill="none" xmlns="http://www.w3.org/2000/svg">
<g clip-path="url(#clip0_2648_8120)">
<path d="M28.4278 2.96573C27.2597 1.95627 25.8702 1.35059 24.4 0.966993C20.6542 -0.00209276 16.8883 -0.264553 13.082 0.260368C11.1487 0.522828 9.2758 1.02756 7.564 1.99665C5.55012 3.12724 4.16054 4.76258 3.55638 7.02378C3.11332 8.63892 2.91194 10.2742 2.83138 11.95C2.69041 14.4131 2.77096 16.856 3.39527 19.2585C4.12026 22.0244 5.69109 24.0837 8.40983 25.1739C8.71191 25.2951 8.97371 25.4566 9.2758 25.5777C9.5376 25.6989 9.63829 25.8806 9.61816 26.1632C9.59802 28.0812 9.61816 29.9992 9.61816 31.9979C10.323 31.3115 10.8265 30.8067 11.1688 30.403C12.2362 29.1916 13.2431 28.1821 14.3508 27.0515C14.9147 26.466 14.673 26.5064 15.5591 26.5064C16.5862 26.5266 18.1973 26.567 19.2244 26.4862C21.1778 26.3247 23.1112 26.0825 24.9841 25.5172C27.3806 24.7903 29.2938 23.5184 30.2604 21.0957C30.5222 20.4496 30.7639 19.8036 30.925 19.1373C31.8514 15.2812 31.7306 11.425 30.9451 7.56889C30.6028 5.77204 29.8375 4.17709 28.4278 2.96573ZM16.5459 5.30769C16.566 4.94428 16.7876 4.80295 17.1299 4.80295C20.0903 4.94428 22.3257 5.83261 24.0375 8.15438C25.0445 9.50706 25.5882 11.3443 25.6486 13.0402C25.6486 13.3026 25.6688 13.5449 25.6486 13.8074C25.6285 14.09 25.5077 14.3121 25.1854 14.3121C24.8632 14.3121 24.7021 14.1506 24.682 13.8074C24.6014 12.5556 24.3598 11.3241 23.8764 10.1531C22.95 7.89191 21.1778 6.68056 18.882 6.09507C18.2778 5.93355 17.6737 5.81242 17.0494 5.75185C16.7876 5.73166 16.5258 5.67109 16.5459 5.30769ZM19.5466 8.45721C18.9424 8.25532 18.3383 8.07362 17.6938 7.99286C17.3917 7.95248 17.1702 7.79097 17.2306 7.42756C17.291 7.08434 17.5126 6.96321 17.8348 6.9834C19.9091 7.18529 21.5202 7.93229 22.6278 9.72914C23.1514 10.5771 23.4535 11.7683 23.4132 12.6566C23.373 13.2825 23.2924 13.444 22.9299 13.444C22.4063 13.4238 22.4868 12.9998 22.4466 12.6768C22.3862 12.1922 22.2855 11.7077 22.1445 11.2231C21.7417 9.85027 20.8757 8.94176 19.5466 8.45721ZM21.2987 11.95C21.2785 12.1317 21.2785 12.2528 21.2584 12.3537C21.198 12.5758 21.057 12.7172 20.8153 12.7373C20.5535 12.7373 20.4327 12.596 20.3521 12.3739C20.3119 12.2124 20.2917 12.0509 20.2716 11.9096C20.1105 11.0818 19.6271 10.5165 18.8014 10.2944C18.7008 10.2742 18.6001 10.2541 18.4994 10.2339C18.2376 10.1531 17.9153 10.1531 17.8952 9.76952C17.8952 9.44649 18.1369 9.26479 18.5598 9.2446C18.8619 9.22441 19.3049 9.36573 19.5869 9.50706C20.6542 10.032 21.1577 10.779 21.2987 11.95ZM25.6486 20.7727C25.0646 22.085 24.098 22.9329 22.7084 23.3367C22.2049 23.478 21.7216 23.3569 21.2785 23.155C14.9952 20.4698 10.464 16.0686 7.90636 9.68876C7.72511 9.22441 7.60428 8.73986 7.62441 8.31589C7.62441 6.68056 9.07441 5.14617 10.6452 5.06542C11.0883 5.04523 11.4508 5.18655 11.773 5.48939C12.8806 6.53923 13.7667 7.7304 14.4313 9.10327C14.7938 9.85027 14.6327 10.3752 14.0084 10.9001C13.9077 10.9809 13.7869 11.0616 13.6862 11.1424C12.8404 11.7683 12.6591 12.3941 13.0619 13.3632C13.7265 14.9582 14.7938 16.2099 16.264 17.1386C16.8077 17.4818 17.3716 17.825 17.9959 18.0067C18.5799 18.1683 19.0431 17.9866 19.4056 17.5424C19.4459 17.4818 19.4862 17.4414 19.5264 17.3809C20.332 16.2503 21.198 16.0686 22.366 16.7954C23.373 17.4213 24.3195 18.1279 25.2257 18.8951C25.8097 19.42 25.9709 20.0459 25.6486 20.7727Z" fill="#8798A5"/>
</g>
<defs>
<clipPath id="clip0_2648_8120">
<rect width="32" height="32" fill="white"/>
</clipPath>
</defs>
</svg>
