<svg width="159" height="41" viewBox="0 0 159 41" fill="none" xmlns="http://www.w3.org/2000/svg">
<path d="M0.396484 35.1357H1.04385L2.73421 37.5094L4.42457 35.1357H5.03597V39.6314H4.35264V36.2147L2.69825 38.4805L1.04385 36.2147V39.6314H0.396484V35.1357Z" fill="#575757"/>
<path d="M8.27148 35.1357H8.95482V37.0779H11.5083V35.1357H12.1917V39.6314H11.5083V37.6533H8.91885V39.6314H8.27148V35.1357Z" fill="#575757"/>
<path d="M15.1426 37.367C15.1426 36.1082 16.1496 35.0293 17.4803 35.0293C18.847 35.0293 19.818 36.1082 19.818 37.367C19.818 38.6258 18.811 39.7047 17.4443 39.7047C16.1496 39.7407 15.1426 38.6618 15.1426 37.367ZM19.1707 37.367C19.1707 36.396 18.4514 35.6047 17.5163 35.6047C16.5452 35.6047 15.8619 36.396 15.8619 37.367C15.8619 38.3381 16.5812 39.1293 17.5163 39.1293C18.4873 39.1293 19.1707 38.3381 19.1707 37.367Z" fill="#575757"/>
<path d="M22.8027 35.1357H25.8598V35.7112H23.4861V39.6314H22.8027V35.1357Z" fill="#575757"/>
<path d="M28.0166 37.367C28.0166 36.1082 29.0236 35.0293 30.3543 35.0293C31.721 35.0293 32.6921 36.1082 32.6921 37.367C32.6921 38.6258 31.685 39.7047 30.3184 39.7047C29.0236 39.7407 28.0166 38.6618 28.0166 37.367ZM32.0447 37.367C32.0447 36.396 31.3254 35.6047 30.3903 35.6047C29.4192 35.6047 28.7359 36.396 28.7359 37.367C28.7359 38.3381 29.4552 39.1293 30.3903 39.1293C31.3613 39.1293 32.0447 38.3381 32.0447 37.367Z" fill="#575757"/>
<path d="M35.6785 35.1357H39.5628V39.6314H38.8794V35.7112H36.3259V39.6314H35.6426V35.1357H35.6785Z" fill="#575757"/>
<path d="M42.7988 35.1372H43.4822V36.0363C43.8418 35.4968 44.3813 35.0293 45.2085 35.0293C46.2874 35.0293 47.3664 35.8925 47.3664 37.367C47.3664 38.8416 46.2874 39.7047 45.2085 39.7047C44.3813 39.7047 43.8418 39.2372 43.4822 38.7337V40.9995H42.7988V35.1372ZM46.6831 37.367C46.6831 36.2881 45.9637 35.6407 45.1006 35.6407C44.2734 35.6407 43.4822 36.36 43.4822 37.403C43.4822 38.446 44.2734 39.1293 45.1006 39.1293C45.9637 39.1293 46.6831 38.4819 46.6831 37.367Z" fill="#575757"/>
<path d="M50.0645 37.367C50.0645 36.1082 51.0715 35.0293 52.4022 35.0293C53.7688 35.0293 54.7399 36.1082 54.7399 37.367C54.7399 38.6258 53.7329 39.7047 52.3662 39.7047C51.0355 39.7407 50.0645 38.6618 50.0645 37.367ZM54.0566 37.367C54.0566 36.396 53.3373 35.6047 52.4022 35.6047C51.4311 35.6047 50.7478 36.396 50.7478 37.367C50.7478 38.3381 51.4671 39.1293 52.4022 39.1293C53.3732 39.1293 54.0566 38.3381 54.0566 37.367Z" fill="#575757"/>
<path d="M60.3857 39.2731C60.0979 39.5249 59.7743 39.7407 59.2707 39.7407C58.1918 39.7407 57.4365 38.8775 57.4365 37.367C57.4365 35.8924 58.1918 35.0293 59.2707 35.0293C59.7743 35.0293 60.0979 35.245 60.3857 35.5328V33.5547H61.069V35.5328C61.3567 35.281 61.6804 35.0293 62.1839 35.0293C63.2629 35.0293 64.0181 35.8924 64.0181 37.367C64.0181 38.8415 63.2629 39.7047 62.1839 39.7047C61.6444 39.7047 61.3567 39.4889 61.069 39.2372V40.9994H60.3857V39.2731ZM60.3857 38.6977V36.0722C60.0979 35.7845 59.8102 35.6407 59.4146 35.6407C58.5514 35.6407 58.1558 36.324 58.1558 37.4029C58.1558 38.4819 58.5514 39.1293 59.4146 39.1293C59.8102 39.1293 60.1339 38.9854 60.3857 38.6977ZM63.3348 37.367C63.3348 36.288 62.9032 35.6047 62.076 35.6047C61.6804 35.6047 61.3567 35.7486 61.069 36.0363V38.6617C61.3567 38.9494 61.6444 39.0933 62.076 39.0933C62.9392 39.1293 63.3348 38.4819 63.3348 37.367Z" fill="#575757"/>
<path d="M67.0399 35.1357H67.7232V38.6963L70.3846 35.1357H71.032V39.6314H70.3487V36.0708L67.6513 39.6314H67.0039V35.1357H67.0399Z" fill="#575757"/>
<path d="M73.5127 39.6325L73.5846 39.0571C73.6566 39.093 73.8364 39.129 73.9083 39.129C74.4478 39.129 74.9153 38.8772 74.9153 35.5325V35.1729H78.1162V39.6685H77.4329V35.7123H75.5267V35.8202C75.5267 39.3448 74.8794 39.7044 74.0522 39.7044C73.9083 39.7044 73.6566 39.6685 73.5127 39.6325Z" fill="#575757"/>
<path d="M81.3184 35.1357H82.0017V36.8261H83.1885C84.1596 36.8261 84.9508 37.2217 84.9508 38.1928C84.9508 39.0919 84.2675 39.6673 83.2605 39.6673H81.3184V35.1357ZM83.2245 39.02C83.9078 39.02 84.3035 38.7322 84.3035 38.1568C84.3035 37.6173 83.8719 37.3656 83.1885 37.3656H82.0017V39.02H83.2245Z" fill="#575757"/>
<path d="M87.7559 35.1357H88.4392V37.0779H91.0287V35.1357H91.712V39.6314H91.0287V37.6533H88.4392V39.6314H87.7559V35.1357Z" fill="#575757"/>
<path d="M94.5889 38.3021C94.5889 37.3311 95.3801 36.8275 96.495 36.8275C97.0704 36.8275 97.4661 36.8995 97.8617 37.0074V36.8635C97.8617 36.0723 97.3582 35.6407 96.531 35.6407C95.9915 35.6407 95.5959 35.7846 95.1643 35.9644L94.9485 35.4249C95.452 35.2091 95.9196 35.0293 96.6029 35.0293C97.2503 35.0293 97.7178 35.2091 98.0415 35.5328C98.3652 35.8565 98.5091 36.2881 98.5091 36.8635V39.5969H97.8617V38.9135C97.538 39.3091 97.0345 39.6688 96.2433 39.6688C95.4161 39.7047 94.5889 39.2372 94.5889 38.3021ZM97.8977 37.9784V37.5468C97.574 37.439 97.1424 37.367 96.5669 37.367C95.7397 37.367 95.2362 37.7267 95.2362 38.3021C95.2362 38.8776 95.7757 39.2012 96.3512 39.2012C97.2143 39.1653 97.8977 38.6977 97.8977 37.9784Z" fill="#575757"/>
<path d="M102.681 37.8709C101.998 37.727 101.494 37.2595 101.494 36.5042C101.494 35.677 102.106 35.1016 103.184 35.1016H105.306V39.5972H104.623V37.9428H103.364C102.933 38.4823 102.537 39.0577 102.106 39.5972H101.278L102.681 37.8709ZM104.623 37.4393V35.7489H103.22C102.537 35.7489 102.141 36.0726 102.141 36.5761C102.141 37.1156 102.609 37.4393 103.22 37.4393H104.623Z" fill="#575757"/>
<path d="M112.896 35.1357H113.579V37.7252L116.06 35.1357H116.888L115.017 37.0779L116.96 39.6314H116.168L114.55 37.5814L113.615 38.5524V39.6314H112.931V35.1357H112.896Z" fill="#575757"/>
<path d="M118.793 39.6325L118.865 39.0571C118.937 39.093 119.117 39.129 119.189 39.129C119.728 39.129 120.196 38.8772 120.196 35.5325V35.1729H123.396V39.6685H122.713V35.7123H120.843V35.8202C120.843 39.3448 120.196 39.7044 119.368 39.7044C119.189 39.7044 118.937 39.6685 118.793 39.6325Z" fill="#575757"/>
<path d="M126.634 35.1357H127.317V38.6963L129.978 35.1357H130.626V39.6314H129.942V36.0708L127.245 39.6314H126.598V35.1357H126.634Z" fill="#575757"/>
<path d="M133.862 35.1357H134.546V37.0779H137.135V35.1357H137.818V39.6314H137.135V37.6533H134.546V39.6314H133.862V35.1357Z" fill="#575757"/>
<path d="M141.019 35.1357H141.703V38.6963L144.364 35.1357H145.011V39.6314H144.328V36.0708L141.631 39.6314H140.983V35.1357H141.019Z" fill="#575757"/>
<path d="M148.248 35.1357H148.931V37.7252L151.413 35.1357H152.24L150.334 37.0779L152.276 39.6314H151.485L149.866 37.5814L148.931 38.5524V39.6314H148.248V35.1357Z" fill="#575757"/>
<path d="M154.434 38.3021C154.434 37.3311 155.225 36.8275 156.34 36.8275C156.915 36.8275 157.311 36.8995 157.706 37.0074V36.8635C157.706 36.0723 157.203 35.6407 156.376 35.6407C155.836 35.6407 155.441 35.7846 155.009 35.9644L154.793 35.4249C155.297 35.2091 155.764 35.0293 156.448 35.0293C157.095 35.0293 157.563 35.2091 157.886 35.5328C158.21 35.8565 158.354 36.2881 158.354 36.8635V39.5969H157.706V38.9135C157.383 39.3091 156.879 39.6688 156.088 39.6688C155.261 39.7047 154.434 39.2372 154.434 38.3021ZM157.742 37.9784V37.5468C157.419 37.439 156.987 37.367 156.412 37.367C155.584 37.367 155.081 37.7267 155.081 38.3021C155.081 38.8776 155.62 39.2012 156.196 39.2012C157.059 39.1653 157.742 38.6977 157.742 37.9784Z" fill="#575757"/>
<path d="M58.8034 8.84742H61.321V2.55355C61.321 1.25881 60.278 0.21582 58.9833 0.21582C57.6885 0.21582 56.6455 1.25881 56.6455 2.55355V10.9694C56.6096 9.78251 57.5447 8.84742 58.8034 8.84742Z" fill="#91B83F"/>
<path d="M58.8023 13.1639C57.5435 13.1639 56.6084 12.2288 56.6084 11.042V19.5657C56.6084 20.8604 57.6514 21.9034 58.9461 21.9034C60.2409 21.9034 61.2838 20.8604 61.2838 19.5657V13.1639H58.8023Z" fill="#91B83F"/>
<path d="M72.2899 0.21582C70.9951 0.21582 69.9521 1.25881 69.9521 2.55355V8.81146H72.4337H72.4697C73.7285 8.81146 74.6636 9.74655 74.6636 10.9334V2.55355C74.6276 1.25881 73.6206 0.21582 72.2899 0.21582Z" fill="#91B83F"/>
<path d="M72.4697 13.1639C72.4337 13.1639 72.4337 13.1639 72.4697 13.1639H69.9521V19.5657C69.9521 20.8604 70.9951 21.9034 72.2899 21.9034C73.5846 21.9034 74.6276 20.8604 74.6276 19.5657V11.042C74.6276 12.2288 73.6925 13.1639 72.4697 13.1639Z" fill="#91B83F"/>
<path d="M93.8327 0.0361328C95.0915 0.0361328 96.0266 0.971223 96.0266 2.15807V2.19403C96.0266 3.41684 95.0915 4.31597 93.8327 4.31597C92.5739 4.31597 91.6389 3.38088 91.6389 2.19403V2.15807C91.6389 0.971223 92.5739 0.0361328 93.8327 0.0361328C87.2511 0.0361328 82.4678 4.9993 82.4678 11.0774V11.1493C82.4678 17.1914 87.1792 22.1187 93.7608 22.1187H93.7967C92.538 22.1187 91.6389 21.1836 91.6389 19.9967V19.9607C91.6389 18.7379 92.5739 17.8388 93.8327 17.8388C95.0915 17.8388 96.0266 18.7739 96.0266 19.9607V19.9967C96.0266 21.1836 95.1275 22.0827 93.9046 22.1187C100.414 22.0467 105.126 17.1195 105.126 11.1134V11.0414C105.126 4.92737 100.414 0.0361328 93.8327 0.0361328ZM100.234 11.1134C100.234 14.7818 97.609 17.7669 93.8327 17.7669C90.0564 17.7669 87.395 14.7099 87.395 11.0774V11.0055C87.395 7.33703 90.0204 4.35193 93.7967 4.35193C97.5731 4.35193 100.27 7.40896 100.27 11.0414V11.1134H100.234Z" fill="#91B83F"/>
<path d="M91.6387 2.15807V2.19403C91.6387 3.41684 92.5738 4.31597 93.8325 4.31597C95.0913 4.31597 96.0264 3.38088 96.0264 2.19403V2.15807C96.0264 0.935258 95.0913 0.0361328 93.8325 0.0361328C92.5738 0.0361328 91.6387 0.971223 91.6387 2.15807Z" fill="#5D883D"/>
<path d="M96.0264 19.9597V19.9237C96.0264 18.7009 95.0913 17.8018 93.8325 17.8018C92.5738 17.8018 91.6387 18.7368 91.6387 19.9237V19.9597C91.6387 21.1465 92.5738 22.0816 93.7966 22.0816C93.8325 22.0816 93.8685 22.0816 93.8685 22.0816C95.1273 22.0456 96.0264 21.1465 96.0264 19.9597Z" fill="#5D883D"/>
<path d="M115.124 17.4079H117.317V13.164V11.0421V8.84823V4.60436H115.124C113.865 4.60436 112.93 3.66927 112.93 2.48242C112.93 2.51839 112.93 2.59032 112.93 2.62628V11.0421V19.386C112.93 19.4219 112.93 19.4939 112.93 19.5298C112.966 18.307 113.865 17.4079 115.124 17.4079Z" fill="#91B83F"/>
<path d="M146.593 0.467575C146.916 0.323715 147.24 0.21582 147.564 0.21582C146.916 0.21582 146.341 0.467575 145.945 0.935121C146.125 0.755296 146.341 0.57547 146.593 0.467575Z" fill="black"/>
<path d="M141.487 16.9393C140.228 16.9393 139.293 16.0042 139.293 14.8174V14.7814C139.293 13.5586 140.228 12.6595 141.487 12.6595H144.975L145.695 11.1849L147.565 7.40856L145.659 3.5603C145.623 3.52434 145.623 3.48837 145.587 3.41644L145.551 3.38048C145.299 2.87697 145.263 2.33749 145.407 1.83398L140.767 11.1849L137.099 18.6296C137.063 18.6656 137.063 18.7016 137.027 18.7735L136.991 18.8095C136.452 19.8884 136.883 21.1112 137.998 21.6867C139.113 22.2261 140.372 21.8305 140.911 20.7516L140.947 20.7156C140.983 20.6796 140.983 20.6077 141.019 20.5718L142.781 16.9753L141.487 16.9393Z" fill="#91B83F"/>
<path d="M149.542 1.43906C149.578 1.47502 149.578 1.54695 149.614 1.58292L149.722 1.79871C149.614 1.47502 149.471 1.1873 149.219 0.935547C149.327 1.07941 149.435 1.22327 149.506 1.36713L149.542 1.43906Z" fill="black"/>
<path d="M145.55 1.58292C145.586 1.54695 145.586 1.47502 145.622 1.43906L145.658 1.40309C145.73 1.22327 145.838 1.07941 145.946 0.935547C145.694 1.1873 145.55 1.47502 145.442 1.79871L145.55 1.58292Z" fill="black"/>
<path d="M148.536 0.466969C148.787 0.610829 149.003 0.754689 149.183 0.970479C148.787 0.502934 148.176 0.215214 147.564 0.251179C147.888 0.215214 148.248 0.287144 148.536 0.466969Z" fill="black"/>
<path d="M158.102 18.7735L158.066 18.7375C158.03 18.7016 158.03 18.6656 157.994 18.5937L154.254 11.0051L153.283 9.02699L152.348 7.15681L149.722 1.83398C149.866 2.33749 149.83 2.87697 149.578 3.38048L149.543 3.41644C149.507 3.45241 149.507 3.48838 149.471 3.56031L147.564 7.40856L149.327 11.0051L150.154 12.6595H153.607H153.643C154.901 12.6595 155.836 13.5945 155.836 14.7814V14.8174C155.836 16.0402 154.901 16.9393 153.643 16.9393H153.607H152.276L154.038 20.5358C154.074 20.5718 154.074 20.6437 154.11 20.6797L154.146 20.7156C154.686 21.7946 155.908 22.2261 157.059 21.6507C158.21 21.0753 158.642 19.8525 158.102 18.7735Z" fill="#91B83F"/>
<path d="M145.586 3.34478L145.622 3.38074C145.658 3.41671 145.658 3.45267 145.694 3.5246L147.601 7.37286L149.507 3.5246C149.543 3.48864 149.543 3.45267 149.579 3.38074L149.615 3.34478C149.866 2.84127 149.902 2.30179 149.758 1.79828L149.615 1.58249C149.579 1.54653 149.579 1.4746 149.543 1.43863L149.507 1.40267C149.435 1.22284 149.327 1.07898 149.219 0.971085C149.039 0.79126 148.823 0.611435 148.572 0.467575C148.248 0.323715 147.924 0.21582 147.601 0.21582C147.277 0.21582 146.953 0.28775 146.629 0.467575C146.378 0.611435 146.162 0.755295 145.982 0.971085C145.874 1.11495 145.766 1.25881 145.694 1.43863L145.658 1.4746C145.622 1.51056 145.622 1.58249 145.586 1.61846L145.479 1.83425C145.299 2.30179 145.335 2.84127 145.586 3.34478Z" fill="#5D883D"/>
<path d="M69.9527 8.84766H61.2852V13.1635H69.9527V8.84766Z" fill="#91B83F"/>
<path d="M61.2847 8.84766H58.7671C57.5083 8.84766 56.5732 9.78275 56.5732 10.9696V11.0056C56.5732 12.2284 57.5083 13.1275 58.7671 13.1275H61.2847V8.84766Z" fill="#5D883D"/>
<path d="M72.4697 8.84766C72.4337 8.84766 72.4337 8.84766 72.4697 8.84766H69.9521V13.1635H72.4337H72.4697C73.7285 13.1635 74.6636 12.2284 74.6636 11.0415V11.0056C74.6276 9.78275 73.6925 8.84766 72.4697 8.84766Z" fill="#5D883D"/>
<path d="M144.974 12.624L144.759 13.0916L143.824 14.9617V14.9977L142.853 16.9398H152.311L150.189 12.624H144.974Z" fill="#91B83F"/>
<path d="M143.823 14.9617L144.758 13.0916L145.01 12.624H141.521C140.262 12.624 139.327 13.5591 139.327 14.746V14.7819C139.327 16.0047 140.262 16.9039 141.521 16.9039H142.888L143.823 14.9617Z" fill="#5D883D"/>
<path d="M153.679 16.941C154.938 16.941 155.873 16.0059 155.873 14.819V14.7831C155.873 13.5603 154.938 12.6611 153.679 12.6611H153.643H150.19L152.312 16.9769L153.679 16.941C153.643 16.941 153.679 16.941 153.679 16.941Z" fill="#5D883D"/>
<path d="M9.1709 2.15807V2.19403C9.1709 3.41684 10.106 4.31597 11.3648 4.31597C12.6235 4.31597 13.5586 3.38088 13.5586 2.19403V2.15807C13.5586 0.935258 12.6235 0.0361328 11.3648 0.0361328C10.106 0.0361328 9.1709 0.971223 9.1709 2.15807Z" fill="#4D7565"/>
<path d="M13.5586 19.9597V19.9237C13.5586 18.7009 12.6235 17.8018 11.3648 17.8018C10.106 17.8018 9.1709 18.7368 9.1709 19.9237V19.9597C9.1709 21.1465 10.106 22.0816 11.3288 22.0816C11.3648 22.0816 11.4007 22.0816 11.4007 22.0816C12.6595 22.0456 13.5586 21.1465 13.5586 19.9597Z" fill="#4D7565"/>
<path d="M46.3945 6.29445C47.7252 6.29445 48.6963 5.3234 48.6963 4.06462V4.02866C48.6963 2.76988 47.7252 1.79883 46.3945 1.79883C45.0638 1.79883 44.0928 2.76988 44.0928 4.02866V4.06462C44.0928 5.3234 45.0638 6.29445 46.3945 6.29445Z" fill="#4D7565"/>
<path d="M46.3945 20.355C47.7252 20.355 48.6963 19.3839 48.6963 18.1252V18.0892C48.6963 16.8304 47.7252 15.8594 46.3945 15.8594C45.0638 15.8594 44.0928 16.8304 44.0928 18.0892V18.1252C44.0928 19.3839 45.0638 20.355 46.3945 20.355Z" fill="#4D7565"/>
<path d="M126.057 12.9475C125.769 13.0554 125.446 13.1273 125.122 13.1273C123.863 13.1273 122.928 12.1922 122.928 11.0054C122.928 11.9764 123.539 12.7676 124.438 13.0554C125.302 13.415 126.417 13.9185 126.417 15.2133V15.2852C126.417 16.8677 125.158 17.3712 123.108 17.3712H117.353V19.3492C117.353 19.3852 117.353 19.4571 117.353 19.4931V19.5291C117.353 20.7159 116.454 21.651 115.231 21.651C115.267 21.651 115.303 21.651 115.339 21.651H123.144C127.963 21.651 131.128 19.7089 131.128 15.7887V15.7168C131.128 13.9545 130.337 12.2282 129.006 10.8975C128.143 11.7966 127.172 12.4799 126.057 12.9475Z" fill="#91B83F"/>
<path d="M117.317 19.5651V19.5292C117.317 19.4932 117.317 19.4213 117.317 19.3853V17.4072H115.124C113.865 17.4072 112.93 18.3423 112.93 19.5292V19.5651C112.93 20.7879 113.865 21.6871 115.124 21.6871C115.16 21.6871 115.16 21.6871 115.195 21.6871C116.418 21.6871 117.317 20.752 117.317 19.5651Z" fill="#5D883D"/>
<path d="M123.109 0.288086H115.304C115.268 0.288086 115.232 0.288086 115.196 0.288086C116.419 0.324051 117.318 1.22318 117.318 2.41002V2.44599C117.318 2.48195 117.318 2.55388 117.318 2.58985V4.56792H123.073C125.159 4.56792 126.381 5.07143 126.381 6.65389V6.72582C126.381 8.02056 125.266 8.52407 124.403 8.88372C123.504 9.13548 122.893 9.96267 122.893 10.9337C122.893 9.71092 123.828 8.81179 125.087 8.81179C125.446 8.81179 125.734 8.88372 126.022 9.02758C127.137 9.49513 128.108 10.1785 128.899 11.0057C130.194 9.67495 131.021 7.94863 131.021 6.18635V6.11442C131.057 2.2302 127.892 0.288086 123.109 0.288086Z" fill="#91B83F"/>
<path d="M115.124 4.60389H117.317V2.62581C117.317 2.58985 117.317 2.51792 117.317 2.48195V2.41002C117.317 1.22318 116.418 0.288086 115.195 0.288086C115.16 0.288086 115.16 0.288086 115.124 0.288086C113.865 0.288086 112.93 1.22318 112.93 2.41002V2.44599C112.966 3.6688 113.865 4.60389 115.124 4.60389Z" fill="#5D883D"/>
<path d="M126.057 9.02748C125.769 8.91959 125.445 8.84766 125.122 8.84766C123.863 8.84766 122.928 9.78275 122.928 10.9696V11.0056C122.928 12.2284 123.863 13.1275 125.122 13.1275C125.481 13.1275 125.769 13.0556 126.057 12.9117C127.172 12.4442 128.143 11.7608 128.934 10.9336C128.143 10.1784 127.172 9.49503 126.057 9.02748Z" fill="#5D883D"/>
<path d="M51.5013 29.3824C51.5013 28.4113 51.7531 27.6201 52.0768 27.6201H1.76172C2.0854 27.6201 2.33716 28.4113 2.33716 29.3824C2.33716 30.3535 2.0854 31.1447 1.76172 31.1447H52.0768C51.7891 31.1807 51.5013 30.3894 51.5013 29.3824Z" fill="#77B09D"/>
<path d="M155.693 29.3824C155.693 28.4113 156.233 27.6201 156.88 27.6201H52.042C52.6894 27.6201 53.5885 28.4113 53.5885 29.3824C53.5885 30.3535 52.6894 31.1447 52.042 31.1447H156.916C156.233 31.1807 155.693 30.3894 155.693 29.3824Z" fill="#91B83F"/>
<path d="M1.76108 31.1809C1.72535 31.1809 1.68962 31.1809 1.61816 31.1809C1.68962 31.1452 1.72535 31.1809 1.76108 31.1809Z" fill="#91B83F"/>
<path d="M158.318 29.3824C158.318 28.4113 157.527 27.6201 156.556 27.6201C157.527 27.6201 158.318 28.4113 158.318 29.3824Z" fill="#91B83F"/>
<path d="M156.556 31.1812C157.527 31.1812 158.318 30.39 158.318 29.4189C158.318 30.39 157.527 31.1812 156.556 31.1812Z" fill="#91B83F"/>
<path d="M158.318 29.3824C158.318 28.4113 157.526 27.6201 156.555 27.6201C155.584 27.6201 154.793 28.4113 154.793 29.3824C154.793 30.3535 155.584 31.1447 156.555 31.1447C157.526 31.1807 158.318 30.3894 158.318 29.3824Z" fill="#91B83F"/>
<path d="M53.8752 29.3824C53.8752 28.4113 53.0839 27.6201 52.1129 27.6201C51.1418 27.6201 50.3506 28.4113 50.3506 29.3824C50.3506 30.3535 51.1418 31.1447 52.1129 31.1447C53.0839 31.1807 53.8752 30.3894 53.8752 29.3824Z" fill="#5D883D"/>
<path d="M1.61843 27.6572C0.7193 27.6932 0 28.4844 0 29.3835C0 28.4844 0.7193 27.6932 1.61843 27.6572Z" fill="#91B83F"/>
<path d="M0 29.3828C0 30.3179 0.7193 31.0732 1.61843 31.1451C0.7193 31.0732 0 30.3179 0 29.3828Z" fill="#91B83F"/>
<path d="M3.52457 29.3824C3.52457 28.4113 2.73334 27.6201 1.76229 27.6201C1.72632 27.6201 1.69036 27.6201 1.61843 27.6201C0.7193 27.692 0 28.4833 0 29.3824C0 30.2815 0.7193 31.0728 1.61843 31.1447C1.65439 31.1447 1.69036 31.1447 1.76229 31.1447C2.73334 31.1807 3.52457 30.3894 3.52457 29.3824Z" fill="#4D7565"/>
<path d="M18.9536 13.1624H18.5939H17.479C16.6878 15.8238 14.422 17.7659 11.3649 17.7659C7.58862 17.7659 4.89124 14.7089 4.89124 11.0764V11.0045C4.89124 7.33605 7.51669 4.35096 11.293 4.35096C14.2781 4.35096 16.5439 6.2571 17.4071 8.81062C18.3062 8.81062 18.9536 8.81062 18.9536 8.81062H21.1115H22.4781C21.4711 3.81148 17.1193 0.0351562 11.3649 0.0351562C12.6237 0.0351562 13.5588 0.970247 13.5588 2.15709V2.19306C13.5588 3.41587 12.6237 4.31499 11.3649 4.31499C10.1062 4.31499 9.17108 3.3799 9.17108 2.19306V2.15709C9.17108 0.934282 10.1062 0.0351562 11.3649 0.0351562C4.78335 0.0351562 0 4.99833 0 11.0764V11.1483C0 17.1905 4.71142 22.1177 11.293 22.1177H11.329C10.0702 22.1177 9.17108 21.1826 9.17108 19.9957V19.9598C9.17108 18.737 10.1062 17.8378 11.3649 17.8378C12.6237 17.8378 13.5588 18.7729 13.5588 19.9598V19.9957C13.5588 21.1826 12.6597 22.0817 11.4369 22.1177C17.1913 22.0457 21.5071 18.2335 22.4781 13.1983H21.1115H18.9536V13.1624Z" fill="#77B09D"/>
<path d="M46.3948 15.7886C45.7474 15.7886 45.3158 16.0404 44.9922 16.2562C43.6974 17.2272 42.2948 17.7667 40.6404 17.7667C37.0439 17.7667 34.4544 14.7816 34.4544 11.1132V11.0413V10.9693C34.4544 7.33686 37.0439 4.35177 40.6404 4.35177C42.3308 4.35177 43.6974 4.89124 44.9922 5.8623C45.3158 6.07809 45.7474 6.32984 46.3948 6.32984C47.6895 6.32984 48.6966 5.32282 48.6966 4.02808C48.6966 3.20089 48.265 2.55352 47.7974 2.1579C46.0351 0.86316 43.8772 0 40.6764 0C34.922 0.035965 30.7141 3.84826 29.743 8.84739H32.1886H32.2246C33.4834 8.84739 34.4184 9.78248 34.4184 10.9693V11.0053C34.4184 12.2281 33.4834 13.1272 32.2246 13.1272H32.1886H29.707C30.6421 18.2343 34.886 22.0825 40.6404 22.0825C43.8413 22.0825 45.9992 21.2194 47.7615 19.9246C48.265 19.565 48.6606 18.8816 48.6606 18.0544C48.6966 16.7957 47.6536 15.7886 46.3948 15.7886ZM44.093 4.02808C44.093 2.76931 45.0641 1.79825 46.3948 1.79825C47.7255 1.79825 48.6966 2.76931 48.6966 4.02808V4.06405C48.6966 5.32282 47.7255 6.29388 46.3948 6.29388C45.0641 6.29388 44.093 5.32282 44.093 4.06405V4.02808ZM48.6606 18.0544V18.0904C48.6606 19.3492 47.6895 20.3202 46.3588 20.3202C45.0281 20.3202 44.0571 19.3492 44.0571 18.0904V18.0544C44.0571 16.7957 45.0281 15.8246 46.3588 15.8246C47.6895 15.8246 48.6606 16.7957 48.6606 18.0544Z" fill="#77B09D"/>
<path d="M29.5275 11.1133V11.0414V10.9694C29.5275 10.2142 29.5994 9.49486 29.7433 8.81152H29.7073H22.4424C22.5862 9.49486 22.6582 10.2501 22.6582 10.9694V11.0414C22.6582 11.7607 22.5862 12.444 22.4424 13.1273H29.7073C29.5994 12.5159 29.5275 11.8326 29.5275 11.1133Z" fill="#77B09D"/>
<path d="M9.20801 10.9702V11.0062C9.20801 12.229 10.1431 13.1281 11.4019 13.1281H17.48C17.6598 12.4808 17.7677 11.7974 17.7677 11.0781V11.0062C17.7677 10.215 17.6238 9.49567 17.408 8.77637C15.2142 8.77637 11.4019 8.77637 11.4019 8.77637C10.1431 8.8483 9.20801 9.78339 9.20801 10.9702Z" fill="#77B09D"/>
<path d="M22.658 11.0056C22.658 10.2503 22.586 9.53099 22.4422 8.84766H21.0755H18.9176C18.9176 8.84766 18.2702 8.84766 17.3711 8.84766C17.5869 9.53099 17.7307 10.2863 17.7307 11.0775V11.1494C17.7307 11.8687 17.6228 12.5521 17.443 13.1994H18.5579H18.9176H21.0755H22.4422C22.586 12.5161 22.658 11.8328 22.658 11.1135V11.0056Z" fill="#4D7565"/>
<path d="M32.1897 13.1626C32.2257 13.1626 32.2257 13.1626 32.1897 13.1626C33.4845 13.1626 34.4196 12.2276 34.4196 11.0407V11.0047C34.4196 9.78194 33.4845 8.88281 32.2257 8.88281H32.1897H29.7441C29.6002 9.56615 29.5283 10.3214 29.5283 11.0407V11.1126V11.1846C29.5283 11.8679 29.6003 12.5512 29.7081 13.2346L32.1897 13.1626Z" fill="#4D7565"/>
<path d="M9.1709 10.9696V11.0056C9.1709 12.2284 10.106 13.1275 11.3648 13.1275C12.6235 13.1275 13.5586 12.1924 13.5586 11.0056V10.9696C13.5586 9.74678 12.6235 8.84766 11.3648 8.84766C10.106 8.84766 9.1709 9.78275 9.1709 10.9696Z" fill="#4D7565"/>
</svg>
